<svg xmlns="http://www.w3.org/2000/svg" version="1.1" xmlns:xlink="http://www.w3.org/1999/xlink" xmlnsSvgjs="http://svgjs.dev/svgjs" width="401" height="79" viewBox="0 0 2000 308"><g transform="matrix(1,0,0,1,-1.2121212121212466,0.47112915074743)"><svg viewBox="0 0 396 61" data-background-color="#ffffff" preserveAspectRatio="xMidYMid meet" height="308" width="2000" xmlns="http://www.w3.org/2000/svg" xmlns:xlink="http://www.w3.org/1999/xlink"><g id="tight-bounds" transform="matrix(1,0,0,1,0.2400000000000091,-0.09330804608958942)"><svg viewBox="0 0 395.52 61.18661609217916" height="61.18661609217916" width="395.52"><g><svg viewBox="0 0 395.52 61.18661609217916" height="61.18661609217916" width="395.52"><g><svg viewBox="0 0 395.52 61.18661609217916" height="61.18661609217916" width="395.52"><g id="textblocktransform"><svg viewBox="0 0 395.52 61.18661609217916" height="61.18661609217916" width="395.52" id="textblock"><g><svg viewBox="0 0 395.52 61.18661609217916" height="61.18661609217916" width="395.52"><g transform="matrix(1,0,0,1,0,0)"><svg width="395.52" viewBox="-6.990989010989011 -49.12 350.320989010989 54.199999999999996" height="61.18661609217916" data-palette-color="#DFCAA0"><path d="M62.11-35.5L62.11-35.5Q62.11-35.06 61.96-34.72L61.96-34.72Q60.94-35.45 60.08-36.45 59.23-37.45 58.28-38.26 57.32-39.06 56.23-39.45 55.13-39.84 53.61-39.36L53.61-39.36Q52.88-39.75 52.25-39.36 51.61-38.96 51.07-38.57L51.07-38.57 51.07-38.28Q50.63-38.28 50.17-38.38 49.71-38.48 49.29-38.4 48.88-38.33 48.61-37.99 48.34-37.65 48.34-36.77L48.34-36.77Q47.36-36.91 46.7-36.38 46.04-35.84 45.58-35.16 45.12-34.47 44.68-33.91 44.24-33.35 43.7-33.45L43.7-33.45Q43.7-33.4 43.6-33.3L43.6-33.3Q43.21-32.71 42.7-32.2 42.19-31.69 41.75-31.15L41.75-31.15Q39.7-28.47 38.01-25.54 36.33-22.61 35.01-19.53L35.01-19.53Q33.89-19.04 33.35-18.29 32.81-17.53 32.59-16.67 32.37-15.82 32.3-14.92 32.23-14.01 32.06-13.16 31.88-12.3 31.45-11.6 31.01-10.89 30.03-10.4L30.03-10.4 30.22-9.57Q30.71-9.77 30.96-9.52 31.2-9.28 31.25-8.84 31.3-8.4 31.23-7.93 31.15-7.47 31.05-7.18L31.05-7.18Q29.98-6.1 29.93-4.96 29.88-3.81 30.03-2.69 30.18-1.56 30.1-0.51 30.03 0.54 28.91 1.46L28.91 1.46Q28.47 1.22 28.05 1.22 27.64 1.22 27.15 1.42L27.15 1.42Q26.76 1.51 26.56 1.51 26.37 1.51 26.07 1.17L26.07 1.17Q25.83 0.88 25.73 0.42 25.63-0.05 25.61-0.54 25.59-1.03 25.56-1.51 25.54-2 25.49-2.34L25.49-2.34Q26.71-3.91 26.98-5.57 27.25-7.23 27.22-8.94 27.2-10.64 27.25-12.35 27.29-14.06 28.13-15.72L28.13-15.72Q28.13-16.26 28-16.41 27.88-16.55 27.69-16.94L27.69-16.94 28.08-17.14Q27.83-18.85 27.95-20.24 28.08-21.63 28.37-23.29L28.37-23.29 28.42-23.58 28.22-23.78Q27.88-24.12 27.91-24.51 27.93-24.9 28.1-25.29 28.27-25.68 28.44-26.05 28.61-26.42 28.52-26.81L28.52-26.81Q28.37-27.39 28.2-28 28.03-28.61 27.93-29.25L27.93-29.25Q27.59-30.66 27.29-31.84 27-33.01 26.17-34.23L26.17-34.23Q25.24-33.98 24.32-33.57 23.39-33.15 22.58-32.57 21.78-31.98 21.14-31.2 20.51-30.42 20.21-29.49L20.21-29.49 20.17-29.35Q20.21-29.3 20.21-29.2L20.21-29.2Q20.26-28.86 20.04-28.54 19.82-28.22 19.53-27.86 19.24-27.49 18.99-27.03 18.75-26.56 18.8-25.93L18.8-25.93Q18.85-25.44 18.65-24.8 18.46-24.17 18.16-23.54 17.87-22.9 17.5-22.31 17.14-21.73 16.85-21.34L16.85-21.34 16.85-21.29Q16.26-20.21 15.92-19.04 15.58-17.87 15.28-16.67 14.99-15.48 14.58-14.33 14.16-13.18 13.38-12.16L13.38-12.16Q13.92-10.79 13.7-9.45 13.48-8.11 12.96-6.76 12.45-5.42 11.94-4.08 11.43-2.73 11.43-1.37L11.43-1.37Q11.43-1.12 11.45-0.93 11.47-0.73 11.47-0.49L11.47-0.49Q11.23-0.1 10.82-0.02 10.4 0.05 9.91-0.07 9.42-0.2 8.98-0.42 8.54-0.63 8.25-0.83L8.25-0.83Q7.62-1.32 7.57-1.93 7.52-2.54 7.67-3.17 7.81-3.81 7.91-4.44 8.01-5.08 7.71-5.62L7.71-5.62Q8.06-6.93 8.52-8.18 8.98-9.42 9.4-10.72 9.81-12.01 10.13-13.31 10.45-14.6 10.5-16.02L10.5-16.02Q11.08-16.75 11.33-17.63 11.57-18.51 11.72-19.38 11.87-20.26 12.06-21.14 12.26-22.02 12.7-22.85L12.7-22.85Q12.74-22.9 12.74-22.92 12.74-22.95 12.79-23L12.79-23Q13.09-24.27 13.04-25.32 12.99-26.37 12.84-27.64L12.84-27.64Q12.84-27.88 12.82-28.27 12.79-28.66 12.79-29.1 12.79-29.54 12.77-29.91 12.74-30.27 12.7-30.42L12.7-30.42Q12.7-30.57 12.65-30.71 12.6-30.86 12.6-31.01L12.6-31.01Q12.6-31.93 12.94-32.84 13.28-33.74 13.28-34.72L13.28-34.72Q13.28-35.55 12.82-36.3 12.35-37.06 11.62-37.45L11.62-37.45Q11.52-37.5 11.33-37.5L11.33-37.5Q10.64-37.5 10.23-37.23 9.81-36.96 9.57-36.55 9.33-36.13 9.2-35.62 9.08-35.11 8.98-34.57L8.98-34.57Q8.98-34.38 8.91-33.98 8.84-33.59 8.74-33.5L8.74-33.5Q8.5-33.01 8.08-32.47 7.67-31.93 7.32-31.45L7.32-31.45Q6.4-30.13 5.74-28.78 5.08-27.44 4.59-25.88L4.59-25.88Q4-25.93 3.64-25.78 3.27-25.63 3.03-25.34 2.78-25.05 2.54-24.66 2.29-24.27 1.95-23.93L1.95-23.93 1.61-23.58 1.86-23.34Q1.03-22.8 0.68-21.92 0.34-21.04 0.2-20.07L0.2-20.07Q0.1-19.34-0.02-18.85-0.15-18.36-0.39-18.09-0.63-17.82-1.1-17.75-1.56-17.68-2.34-17.77L-2.34-17.77-2.49-17.77-2.59-17.68Q-3.37-17.29-3.49-16.77-3.61-16.26-3.59-15.77-3.56-15.28-3.59-14.89-3.61-14.5-4.25-14.45L-4.25-14.45Q-4.88-14.36-5.62-14.4-6.35-14.45-6.93-14.79L-6.93-14.79Q-6.93-15.23-6.98-15.48L-6.98-15.48Q-7.08-17.48-6.27-19.34-5.47-21.19-4.44-22.8L-4.44-22.8-4.44-22.85-4.39-22.85-4.39-22.95Q-4.05-24.27-3.49-25.68-2.93-27.1-2.2-28.42-1.46-29.74-0.56-30.91 0.34-32.08 1.42-32.91L1.42-32.91Q1.27-33.3 1.25-33.52 1.22-33.74 1.32-33.86 1.42-33.98 1.64-34.08 1.86-34.18 2.25-34.42L2.25-34.42Q2.44-34.86 2.88-35.42 3.32-35.99 3.86-36.6 4.39-37.21 4.91-37.74 5.42-38.28 5.76-38.67L5.76-38.67Q6.93-39.84 7.84-40.94 8.74-42.04 9.52-43.55L9.52-43.55Q10.35-43.31 11.35-43.16 12.35-43.02 13.18-43.26L13.18-43.26Q13.28-42.68 13.65-42.29 14.01-41.89 14.55-41.7L14.55-41.7Q14.7-40.92 15.19-40.04 15.67-39.16 16.16-38.23 16.65-37.3 16.92-36.43 17.19-35.55 16.99-34.81L16.99-34.81Q16.85-34.33 16.82-34.03 16.8-33.74 16.75-33.52 16.7-33.3 16.55-33.11 16.41-32.91 16.06-32.57L16.06-32.57Q16.5-32.23 17.04-31.93 17.58-31.64 18.12-31.84L18.12-31.84Q18.55-32.03 18.75-32.42 18.95-32.81 19.07-33.25 19.19-33.69 19.31-34.11 19.43-34.52 19.73-34.81L19.73-34.81Q20.56-35.55 21.29-36.33 22.02-37.11 22.8-37.79 23.58-38.48 24.51-38.96 25.44-39.45 26.61-39.6L26.61-39.6Q27.49-39.31 27.91-38.62 28.32-37.94 28.61-37.16 28.91-36.38 29.2-35.6 29.49-34.81 30.18-34.23L30.18-34.23Q30.08-33.4 30.15-32.67 30.22-31.93 31.2-31.69L31.2-31.69Q31.3-30.62 31.3-29.79 31.3-28.96 31.37-28.2 31.45-27.44 31.69-26.64 31.93-25.83 32.47-24.8L32.47-24.8 32.91-25.49Q33.2-25.98 33.59-26.37 33.98-26.76 34.35-27.15 34.72-27.54 35.01-28 35.3-28.47 35.45-29.05L35.45-29.05Q36.13-29.15 36.38-29.52 36.62-29.88 37.01-30.27L37.01-30.27Q36.96-30.91 37.38-31.91 37.79-32.91 38.38-33.98 38.96-35.06 39.55-36.08 40.14-37.11 40.38-37.89L40.38-37.89Q41.75-38.33 42.85-39.36 43.95-40.38 45.04-41.38 46.14-42.38 47.36-43.04 48.58-43.7 50.24-43.36L50.24-43.36Q51.56-43.36 52.56-43.19 53.56-43.02 54.49-42.72 55.42-42.43 56.35-41.97 57.28-41.5 58.4-40.92L58.4-40.92Q58.45-40.92 58.69-40.8 58.94-40.67 59.18-40.53 59.42-40.38 59.64-40.26 59.86-40.14 59.86-40.14L59.86-40.14Q60.55-39.16 61.33-37.96 62.11-36.77 62.11-35.5ZM75.53-5.81L75.53-5.81Q74.51-3.61 73.58-2.34 72.65-1.07 71.51-0.22 70.36 0.63 68.75 1.37 67.14 2.1 64.69 3.22L64.69 3.22Q63.72 2.98 62.79 3.1 61.86 3.22 61.01 3.27 60.15 3.32 59.37 3.1 58.59 2.88 57.96 1.9L57.96 1.9 57.22 1.9Q57.27 1.27 57.1 0.56 56.93-0.15 56.15-0.24L56.15-0.24Q56.64-0.78 56.78-1.44 56.93-2.1 57-2.78 57.08-3.47 57.22-4.1 57.37-4.74 57.96-5.18L57.96-5.18Q57.37-5.96 57.49-6.76 57.61-7.57 58.03-8.37 58.44-9.18 58.91-9.99 59.37-10.79 59.37-11.62L59.37-11.62Q58.93-11.91 58.57-12.43 58.2-12.94 57.57-12.7L57.57-12.7Q56.25-11.43 54.93-10.28 53.61-9.13 52.37-7.91 51.12-6.69 50.02-5.35 48.92-4 48-2.39L48-2.39Q47.17-2.25 46.73-1.61 46.29-0.98 45.94-0.27 45.6 0.44 45.19 1.07 44.77 1.71 44.04 1.9L44.04 1.9Q43.8 2.69 43.53 3.49 43.26 4.3 43.02 5.08L43.02 5.08Q42.72 4.93 42.26 4.83 41.79 4.74 41.35 4.59 40.92 4.44 40.57 4.22 40.23 4 40.13 3.66L40.13 3.66Q40.09 3.56 40.11 3.25 40.13 2.93 40.13 2.83L40.13 2.83Q40.23 1.46 40.84 0.27 41.45-0.93 42.14-2.08 42.82-3.22 43.41-4.39 43.99-5.57 44.04-6.98L44.04-6.98Q44.77-6.98 44.99-7.42 45.21-7.86 45.33-8.35 45.46-8.84 45.65-9.23 45.85-9.62 46.53-9.52L46.53-9.52Q46.09-10.11 46.16-10.82 46.24-11.52 46.53-12.23 46.82-12.94 47.26-13.6 47.7-14.26 48-14.79L48-14.79Q47.95-15.48 48.12-16.16 48.29-16.85 48.73-17.38L48.73-17.38Q49.17-17.92 49.51-18.41 49.85-18.9 50.19-19.43L50.19-19.43Q50.39-19.68 50.51-19.97 50.63-20.26 50.78-20.51L50.78-20.51Q51.22-21.14 51.36-21.85 51.51-22.56 51.68-23.27 51.85-23.97 52.17-24.54 52.49-25.1 53.32-25.44L53.32-25.44Q53.32-25.98 53.49-26.44 53.66-26.9 53.85-27.39 54.05-27.88 54.22-28.34 54.39-28.81 54.39-29.35L54.39-29.35Q54.54-29.59 54.83-29.83 55.12-30.08 55.37-30.32 55.61-30.57 55.76-30.83 55.91-31.1 55.81-31.49L55.81-31.49Q55.86-32.13 55.78-32.81 55.71-33.5 56.15-33.98L56.15-33.98Q56.05-34.62 56.32-35.01 56.59-35.4 56.98-35.69 57.37-35.99 57.83-36.25 58.3-36.52 58.64-36.87L58.64-36.87Q58.4-37.21 58.54-37.65 58.69-38.09 58.96-38.5 59.23-38.92 59.57-39.31 59.91-39.7 60.06-39.99L60.06-39.99Q60.35-40.58 60.57-41.16 60.79-41.75 61.08-42.26 61.37-42.77 61.79-43.21 62.2-43.65 62.89-43.95L62.89-43.95Q62.69-44.92 63.01-45.46 63.33-46 63.89-46.39 64.45-46.78 65.09-47.14 65.72-47.51 66.11-48.19L66.11-48.19Q66.65-48.34 67.28-48.51 67.92-48.68 68.55-48.75 69.19-48.83 69.77-48.73 70.36-48.63 70.85-48.19L70.85-48.19Q71.04-48 71.09-47.95 71.14-47.9 71.14-47.88 71.14-47.85 71.16-47.78 71.19-47.71 71.38-47.51L71.38-47.51Q71.58-47.31 71.77-47.14 71.97-46.97 72.17-46.73L72.17-46.73Q72.21-46.39 72.17-45.97 72.12-45.56 72.12-45.17 72.12-44.78 72.24-44.43 72.36-44.09 72.85-43.95L72.85-43.95Q72.46-42.53 72.51-40.92 72.56-39.31 72.56-37.67 72.56-36.04 72.31-34.52 72.07-33.01 71.04-31.84L71.04-31.84 70.7-29.35Q70.07-29.3 69.82-28.93 69.58-28.56 69.48-28.08 69.38-27.59 69.31-27.05 69.24-26.51 68.94-26.17L68.94-26.17Q68.55-25.68 68.16-25.05 67.77-24.41 67.33-23.88 66.89-23.34 66.33-22.97 65.77-22.61 65.04-22.61L65.04-22.61Q64.94-22.31 64.65-21.92 64.35-21.53 63.99-21.17 63.62-20.8 63.23-20.53 62.84-20.26 62.55-20.17L62.55-20.17Q62.16-20.02 61.84-19.95 61.52-19.87 61.13-19.63L61.13-19.63Q60.69-19.38 60.25-18.99 59.81-18.6 59.32-18.31 58.84-18.02 58.3-17.9 57.76-17.77 57.22-18.02L57.22-18.02Q56.59-17.24 55.78-17.07 54.98-16.89 54.22-16.82 53.46-16.75 52.81-16.48 52.15-16.21 51.8-15.28L51.8-15.28Q51.71-15.19 51.63-14.87 51.56-14.55 51.56-14.45L51.56-14.45Q51.56-13.92 51.51-13.13 51.46-12.35 51.9-11.96L51.9-11.96Q53.66-12.79 55.25-13.94 56.83-15.09 58.64-15.87L58.64-15.87 58.98-15.48Q59.13-16.55 59.91-16.58 60.69-16.6 61.52-16.55L61.52-16.55 61.86-16.55Q61.96-16.55 62.03-16.58 62.11-16.6 62.2-16.6L62.2-16.6Q63.13-16.6 63.43-15.87 63.72-15.14 63.96-14.45L63.96-14.45Q63.43-13.87 63.11-13.06 62.79-12.26 62.52-11.38 62.25-10.5 61.94-9.64 61.62-8.79 61.08-8.06L61.08-8.06Q61.52-7.81 61.47-7.52 61.42-7.23 61.3-6.93 61.18-6.64 61.23-6.37 61.28-6.1 61.86-5.96L61.86-5.96Q61.37-5.62 61.2-5.15 61.03-4.69 60.91-4.17 60.79-3.66 60.64-3.2 60.5-2.73 60.06-2.39L60.06-2.39Q60.25-1.95 60.37-1.54 60.5-1.12 60.4-0.59L60.4-0.59Q61.08 0.29 61.79 0.39 62.5 0.49 63.18 0.29 63.86 0.1 64.6-0.1 65.33-0.29 66.11 0L66.11 0Q67.48-0.93 68.02-1.12 68.55-1.32 68.87-1.42 69.19-1.51 69.63-1.86 70.07-2.2 71.29-3.37L71.29-3.37Q72.51-3.71 73.46-4.49 74.41-5.27 75.53-5.81ZM70.36-45.36L68.26-45.7Q68.31-45.12 67.99-44.8 67.67-44.48 67.28-44.21 66.89-43.95 66.53-43.68 66.16-43.41 66.11-42.87L66.11-42.87Q65.48-42.58 65.28-42.09 65.09-41.6 64.96-41.09 64.84-40.58 64.6-40.09 64.35-39.6 63.62-39.31L63.62-39.31 63.96-38.96Q62.35-37.5 61.4-35.5 60.45-33.5 59.71-31.49L59.71-31.49Q59.03-30.76 58.74-29.86 58.44-28.96 58.18-28.05 57.91-27.15 57.49-26.34 57.08-25.54 56.15-25.1L56.15-25.1Q56.64-24.46 56.52-23.93 56.39-23.39 56-22.9 55.61-22.41 55.2-21.92 54.78-21.44 54.73-20.85L54.73-20.85Q55.66-20.65 56.56-20.9 57.47-21.14 58.35-21.61 59.23-22.07 60.01-22.66 60.79-23.24 61.52-23.68L61.52-23.68 61.86-23.34Q64.06-24.56 65.5-26.29 66.94-28.03 68.26-30.08L68.26-30.08Q67.82-30.42 67.87-30.81L67.87-30.81Q67.97-31.05 68.11-31.4 68.26-31.74 68.36-31.98L68.36-31.98Q68.85-33.45 69.09-34.72L69.09-34.72Q69.72-37.35 69.99-40.01 70.26-42.68 70.36-45.36L70.36-45.36ZM109.71-14.94L109.71-14.94Q109.27-14.5 109.05-14.26 108.83-14.01 108.66-13.79 108.49-13.57 108.27-13.33 108.05-13.09 107.61-12.6L107.61-12.6Q107.22-12.21 106.88-11.77 106.54-11.33 106.1-10.99L106.1-10.99Q105.51-11.13 105.2-10.84 104.88-10.55 104.61-10.18 104.34-9.81 104.12-9.5 103.9-9.18 103.56-9.23L103.56-9.23Q102.39-8.59 101.22-8.13 100.04-7.67 98.97-6.79L98.97-6.79 98.58-7.18 93.5-4.74Q93.26-4.64 93.01-4.44 92.77-4.25 92.52-4.1L92.52-4.1Q91.45-3.52 90.3-3.05 89.16-2.59 88.03-2.2L88.03-2.2 87.4-2Q87.79-1.03 87.4-0.63 87.01-0.24 86.27-0.07 85.54 0.1 84.66 0.15 83.78 0.2 83.3 0.49L83.3 0.49Q82.71 0.39 82.1 0.42 81.49 0.44 80.85 0.54L80.85 0.54Q80.17 0.63 79.58 0.63 79 0.63 78.32 0.49L78.32 0.49 78.22 0.49Q77.39 0.88 76.78 0.66 76.17 0.44 75.68-0.07 75.19-0.59 74.78-1.29 74.36-2 73.92-2.59L73.92-2.59Q73.63-2.98 73.19-3.71 72.75-4.44 72.43-5.27 72.11-6.1 72.04-6.96 71.97-7.81 72.41-8.45L72.41-8.45Q72.85-9.08 73.12-9.81 73.38-10.55 73.38-11.52L73.38-11.52Q73.38-11.87 73.36-12.16 73.33-12.45 73.33-12.79L73.33-12.79Q73.58-12.79 73.87-12.77 74.16-12.74 74.43-12.77 74.7-12.79 74.87-12.96 75.04-13.13 75.04-13.57L75.04-13.57Q75.04-13.82 74.87-13.96 74.7-14.11 74.65-14.26L74.65-14.26Q74.95-14.7 75.21-14.97 75.48-15.23 75.68-15.5 75.87-15.77 75.97-16.14 76.07-16.5 75.92-17.14L75.92-17.14Q76.51-18.16 77.31-18.97 78.12-19.78 79-20.48 79.88-21.19 80.81-21.88 81.73-22.56 82.56-23.34L82.56-23.34Q83.49-22.95 84.05-23.34 84.61-23.73 85.05-24.19 85.49-24.66 85.93-24.95 86.37-25.24 87.1-24.71L87.1-24.71 87.2-24.61Q88.52-25.93 89.86-25.78 91.21-25.63 92.16-24.9 93.11-24.17 93.4-23.22 93.7-22.27 92.87-21.92L92.87-21.92Q93.4-21.39 93.4-20.65L93.4-20.65Q93.4-19.92 93.01-19.38L93.01-19.38Q92.57-18.8 92.26-18.19 91.94-17.58 91.6-16.89L91.6-16.89Q91.11-15.77 90.52-14.77 89.94-13.77 88.86-13.09L88.86-13.09Q87.98-13.33 87.67-12.89 87.35-12.45 87.2-11.94 87.06-11.43 86.86-11.13 86.66-10.84 86.03-11.33L86.03-11.33 85.93-11.43 85.83-11.33Q85.44-10.94 85.22-10.45 85-9.96 84.61-9.72L84.61-9.72Q84.17-9.86 83.69-9.96 83.2-10.06 82.76-10.16L82.76-10.16Q82.76-9.13 82.37-8.54 81.98-7.96 81.37-7.59 80.76-7.23 79.98-7.01 79.19-6.79 78.44-6.47 77.68-6.15 77.02-5.69 76.36-5.22 75.97-4.39L75.97-4.39Q76.46-3.86 77.19-3.78 77.92-3.71 78.71-3.78 79.49-3.86 80.24-3.86 81-3.86 81.59-3.47L81.59-3.47 81.64-3.42 81.68-3.47Q82.86-3.61 83.95-4.03 85.05-4.44 86.1-4.91 87.15-5.37 88.25-5.79 89.35-6.2 90.52-6.4L90.52-6.4Q90.77-6.01 91.18-5.96 91.6-5.91 91.99-6.01L91.99-6.01 92.04-6.1Q92.13-6.45 92.23-6.71 92.33-6.98 92.52-7.32L92.52-7.32Q92.87-7.86 93.35-8.15 93.84-8.45 94.4-8.59 94.97-8.74 95.6-8.79 96.24-8.84 96.87-8.94L96.87-8.94 96.97-8.94 97.02-9.08Q97.21-9.67 97.53-9.89 97.85-10.11 98.21-10.21 98.58-10.3 98.99-10.35 99.41-10.4 99.8-10.64L99.8-10.64Q100.68-10.35 101.26-10.84 101.85-11.33 102.39-11.87L102.39-11.87 102.78-11.38 102.92-11.57Q103.66-12.26 104.02-12.6 104.39-12.94 104.73-13.21 105.07-13.48 105.54-13.75 106-14.01 106.83-14.55L106.83-14.55Q107.51-14.99 108.17-15.43 108.83-15.87 109.47-16.41L109.47-16.41Q109.71-16.31 109.71-16.04 109.71-15.77 109.71-15.53L109.71-15.53Q109.66-15.43 109.64-15.23 109.61-15.04 109.71-14.94ZM89.5-21.04L89.5-21.04Q89.45-21.09 89.42-21.09 89.4-21.09 89.35-21.14L89.35-21.14Q88.33-21.68 87.64-21.66 86.96-21.63 86.4-21.26 85.83-20.9 85.37-20.34 84.91-19.78 84.39-19.31 83.88-18.85 83.2-18.6 82.51-18.36 81.54-18.65L81.54-18.65Q81.39-17.87 81.27-17.11 81.15-16.36 81.1-15.58L81.1-15.58Q80.27-15.28 79.8-14.75 79.34-14.21 79.02-13.57 78.71-12.94 78.44-12.23 78.17-11.52 77.73-10.89L77.73-10.89 77.92-10.64Q78.12-10.74 78.36-10.5 78.61-10.25 78.71-10.16L78.71-10.16Q79.24-10.94 80.15-11.47 81.05-12.01 82-12.48 82.95-12.94 83.83-13.48 84.71-14.01 85.15-14.89L85.15-14.89Q86.71-15.33 87.5-16.65 88.28-17.97 88.81-19.38L88.81-19.38Q88.91-19.68 89.18-20.24 89.45-20.8 89.5-21.04ZM139.4-14.94L139.4-14.94Q138.96-14.5 138.74-14.26 138.52-14.01 138.35-13.79 138.18-13.57 137.96-13.33 137.74-13.09 137.3-12.6L137.3-12.6Q136.91-12.21 136.56-11.77 136.22-11.33 135.78-10.99L135.78-10.99Q135.2-11.13 134.88-10.84 134.56-10.55 134.29-10.18 134.03-9.81 133.81-9.5 133.59-9.18 133.24-9.23L133.24-9.23Q132.07-8.59 130.9-8.13 129.73-7.67 128.65-6.79L128.65-6.79 128.26-7.18 123.19-4.74Q122.94-4.64 122.7-4.44 122.45-4.25 122.21-4.1L122.21-4.1Q121.14-3.52 119.99-3.05 118.84-2.59 117.72-2.2L117.72-2.2 117.08-2Q117.47-1.03 117.08-0.63 116.69-0.24 115.96-0.07 115.23 0.1 114.35 0.15 113.47 0.2 112.98 0.49L112.98 0.49Q112.39 0.39 111.78 0.42 111.17 0.44 110.54 0.54L110.54 0.54Q109.86 0.63 109.27 0.63 108.68 0.63 108 0.49L108 0.49 107.9 0.49Q107.07 0.88 106.46 0.66 105.85 0.44 105.36-0.07 104.88-0.59 104.46-1.29 104.05-2 103.61-2.59L103.61-2.59Q103.31-2.98 102.87-3.71 102.43-4.44 102.12-5.27 101.8-6.1 101.73-6.96 101.65-7.81 102.09-8.45L102.09-8.45Q102.53-9.08 102.8-9.81 103.07-10.55 103.07-11.52L103.07-11.52Q103.07-11.87 103.04-12.16 103.02-12.45 103.02-12.79L103.02-12.79Q103.26-12.79 103.56-12.77 103.85-12.74 104.12-12.77 104.39-12.79 104.56-12.96 104.73-13.13 104.73-13.57L104.73-13.57Q104.73-13.82 104.56-13.96 104.39-14.11 104.34-14.26L104.34-14.26Q104.63-14.7 104.9-14.97 105.17-15.23 105.36-15.5 105.56-15.77 105.66-16.14 105.75-16.5 105.61-17.14L105.61-17.14Q106.19-18.16 107-18.97 107.81-19.78 108.68-20.48 109.56-21.19 110.49-21.88 111.42-22.56 112.25-23.34L112.25-23.34Q113.18-22.95 113.74-23.34 114.3-23.73 114.74-24.19 115.18-24.66 115.62-24.95 116.06-25.24 116.79-24.71L116.79-24.71 116.89-24.61Q118.21-25.93 119.55-25.78 120.89-25.63 121.84-24.9 122.8-24.17 123.09-23.22 123.38-22.27 122.55-21.92L122.55-21.92Q123.09-21.39 123.09-20.65L123.09-20.65Q123.09-19.92 122.7-19.38L122.7-19.38Q122.26-18.8 121.94-18.19 121.62-17.58 121.28-16.89L121.28-16.89Q120.79-15.77 120.21-14.77 119.62-13.77 118.55-13.09L118.55-13.09Q117.67-13.33 117.35-12.89 117.03-12.45 116.89-11.94 116.74-11.43 116.55-11.13 116.35-10.84 115.72-11.33L115.72-11.33 115.62-11.43 115.52-11.33Q115.13-10.94 114.91-10.45 114.69-9.96 114.3-9.72L114.3-9.72Q113.86-9.86 113.37-9.96 112.88-10.06 112.44-10.16L112.44-10.16Q112.44-9.13 112.05-8.54 111.66-7.96 111.05-7.59 110.44-7.23 109.66-7.01 108.88-6.79 108.12-6.47 107.37-6.15 106.71-5.69 106.05-5.22 105.66-4.39L105.66-4.39Q106.14-3.86 106.88-3.78 107.61-3.71 108.39-3.78 109.17-3.86 109.93-3.86 110.69-3.86 111.27-3.47L111.27-3.47 111.32-3.42 111.37-3.47Q112.54-3.61 113.64-4.03 114.74-4.44 115.79-4.91 116.84-5.37 117.94-5.79 119.04-6.2 120.21-6.4L120.21-6.4Q120.45-6.01 120.87-5.96 121.28-5.91 121.67-6.01L121.67-6.01 121.72-6.1Q121.82-6.45 121.92-6.71 122.01-6.98 122.21-7.32L122.21-7.32Q122.55-7.86 123.04-8.15 123.53-8.45 124.09-8.59 124.65-8.74 125.29-8.79 125.92-8.84 126.56-8.94L126.56-8.94 126.65-8.94 126.7-9.08Q126.9-9.67 127.21-9.89 127.53-10.11 127.9-10.21 128.26-10.3 128.68-10.35 129.09-10.4 129.48-10.64L129.48-10.64Q130.36-10.35 130.95-10.84 131.54-11.33 132.07-11.87L132.07-11.87 132.46-11.38 132.61-11.57Q133.34-12.26 133.71-12.6 134.07-12.94 134.42-13.21 134.76-13.48 135.22-13.75 135.69-14.01 136.52-14.55L136.52-14.55Q137.2-14.99 137.86-15.43 138.52-15.87 139.15-16.41L139.15-16.41Q139.4-16.31 139.4-16.04 139.4-15.77 139.4-15.53L139.4-15.53Q139.35-15.43 139.32-15.23 139.3-15.04 139.4-14.94ZM119.18-21.04L119.18-21.04Q119.13-21.09 119.11-21.09 119.08-21.09 119.04-21.14L119.04-21.14Q118.01-21.68 117.33-21.66 116.64-21.63 116.08-21.26 115.52-20.9 115.06-20.34 114.59-19.78 114.08-19.31 113.57-18.85 112.88-18.6 112.2-18.36 111.22-18.65L111.22-18.65Q111.08-17.87 110.95-17.11 110.83-16.36 110.78-15.58L110.78-15.58Q109.95-15.28 109.49-14.75 109.03-14.21 108.71-13.57 108.39-12.94 108.12-12.23 107.85-11.52 107.41-10.89L107.41-10.89 107.61-10.64Q107.81-10.74 108.05-10.5 108.29-10.25 108.39-10.16L108.39-10.16Q108.93-10.94 109.83-11.47 110.73-12.01 111.69-12.48 112.64-12.94 113.52-13.48 114.4-14.01 114.84-14.89L114.84-14.89Q116.4-15.33 117.18-16.65 117.96-17.97 118.5-19.38L118.5-19.38Q118.6-19.68 118.86-20.24 119.13-20.8 119.18-21.04ZM165.03-16.02L165.03-16.02Q165.08-15.28 164.76-14.6 164.44-13.92 164.2-13.38L164.2-13.38 162.64-11.72 161.71-8.94Q161.17-8.54 160.56-8.18 159.95-7.81 159.46-7.42L159.46-7.42Q158.93-6.98 158.51-6.45 158.1-5.91 157.61-5.52L157.61-5.52Q157.12-5.13 156.46-4.86 155.8-4.59 155.26-4.25L155.26-4.25Q154.29-3.66 153.43-3.03 152.58-2.39 151.65-1.81L151.65-1.81Q151.41-1.71 151.28-1.59 151.16-1.46 150.92-1.37L150.92-1.37Q150.77-1.27 149.65-0.98 148.53-0.68 147.18-0.32 145.84 0.05 144.67 0.34 143.5 0.63 143.35 0.63L143.35 0.63Q142.47 0.73 141.54 0.73 140.62 0.73 139.69 0.78L139.69 0.78 138.95 1.22Q138.42 0.83 137.78 0.49 137.15 0.15 136.71-0.24L136.71-0.24Q136.22-0.68 135.73-1.25 135.24-1.81 134.85-2.29L134.85-2.29Q134.61-2.98 134.37-3.64 134.12-4.3 133.97-4.93L133.97-4.93 133.73-6.79Q133.63-7.71 133.56-8.59 133.49-9.47 133.39-10.4L133.39-10.4Q134.22-12.7 134.88-15.01 135.54-17.33 136.51-19.58L136.51-19.58Q136.76-20.12 136.98-20.68 137.2-21.24 137.44-21.78L137.44-21.78Q137.73-22.36 138.08-22.88 138.42-23.39 138.66-23.93L138.66-23.93Q138.91-24.51 139.05-25.12 139.2-25.73 139.44-26.27L139.44-26.27Q139.59-26.56 139.93-27.12 140.27-27.69 140.66-28.3 141.05-28.91 141.42-29.49 141.79-30.08 142.03-30.42L142.03-30.42Q142.42-30.91 142.81-31.35 143.2-31.79 143.45-32.32L143.45-32.32Q143.94-33.15 144.37-34.42 144.81-35.69 145.35-36.67L145.35-36.67Q145.94-37.74 146.74-38.7 147.55-39.65 148.23-40.67L148.23-40.67Q148.96-41.7 149.65-42.92L149.65-42.92 151.8-44.48 152.77-43.51 155.12-43.9 156.58-41.7Q156.48-40.97 156.36-40.04 156.24-39.11 156.17-38.16 156.09-37.21 156.07-36.3 156.04-35.4 156.14-34.72L156.14-34.72Q155.9-33.84 155.43-32.89 154.97-31.93 154.38-31.25L154.38-31.25 154.19-28.61 152.24-26.86 151.99-24.37 150.33-22.41Q150.19-21.73 150.04-21.02 149.89-20.31 149.65-19.68L149.65-19.68Q149.4-19.09 149.06-18.48 148.72-17.87 148.38-17.24L148.38-17.24Q147.4-16.41 146.38-15.38 145.35-14.36 144.52-13.33L144.52-13.33Q144.08-12.79 143.72-12.18 143.35-11.57 142.96-11.04L142.96-11.04Q141.69-9.42 140.22-8.01 138.76-6.59 137.34-5.08L137.34-5.08 138.42-3.17Q139.44-2.83 140.52-2.54 141.59-2.25 142.67-2L142.67-2Q143.15-2.1 143.79-2.22 144.42-2.34 145.11-2.51 145.79-2.69 146.45-2.88 147.11-3.08 147.55-3.27L147.55-3.27Q148.53-3.66 149.79-4.42 151.06-5.18 151.94-5.76L151.94-5.76Q153.51-6.74 155.12-7.76 156.73-8.79 158.19-9.91L158.19-9.91Q159.17-10.64 160.24-11.77 161.32-12.89 162.27-13.89 163.22-14.89 163.98-15.53 164.74-16.16 165.03-16.02ZM152.58-36.67L151.75-39.11Q150.72-37.4 149.57-35.82 148.43-34.23 147.45-32.52L147.45-32.52Q147.11-31.93 146.87-31.32 146.62-30.71 146.23-30.13L146.23-30.13Q145.89-29.59 145.5-29.05 145.11-28.52 144.81-27.88L144.81-27.88Q144.23-26.76 143.76-25.51 143.3-24.27 142.76-23.1L142.76-23.1Q142.18-21.92 141.4-20.9 140.62-19.87 139.98-18.7L139.98-18.7 139.2-17.14Q139.1-16.89 139-16.77 138.91-16.65 138.81-16.41L138.81-16.41Q138.61-15.87 138.61-15.23 138.61-14.6 138.47-14.06L138.47-14.06Q138.32-13.48 138.03-12.94 137.73-12.4 137.49-11.87L137.49-11.87Q137.25-11.33 137.1-10.77 136.95-10.21 136.76-9.67L136.76-9.67Q137.15-10.06 137.61-10.38 138.08-10.69 138.52-11.08L138.52-11.08Q138.95-11.52 139.35-12.01 139.74-12.5 140.22-12.89L140.22-12.89Q140.66-13.28 141.18-13.6 141.69-13.92 142.18-14.26L142.18-14.26Q142.96-15.33 143.54-16.46L143.54-16.46Q143.84-16.99 144.06-17.68 144.28-18.36 144.62-18.9L144.62-18.9Q144.91-19.43 145.38-19.92 145.84-20.41 146.18-20.95L146.18-20.95Q146.57-21.48 146.84-22.07 147.11-22.66 147.45-23.19L147.45-23.19Q148.13-24.27 148.96-25.24L148.96-25.24 149.21-28.32 150.97-30.37 151.21-32.23 152.43-33.94 152.58-36.67ZM223.52-18.51L223.57-18.12Q221.08-16.99 218.47-16.28 215.85-15.58 213.22-14.94L213.22-14.94Q213.12-14.94 212.7-14.84 212.29-14.75 211.85-14.62 211.41-14.5 211.04-14.43 210.68-14.36 210.68-14.36L210.68-14.36Q210.09-14.55 209.53-14.38 208.97-14.21 208.41-13.96 207.85-13.72 207.21-13.6 206.58-13.48 205.8-13.82L205.8-13.82Q205.65-13.87 205.26-13.75 204.87-13.62 204.48-13.43 204.09-13.23 203.79-12.96 203.5-12.7 203.45-12.5L203.45-12.5 203.74-12.21Q203.79-12.06 203.6-11.65 203.4-11.23 203.16-10.77 202.91-10.3 202.65-9.91 202.38-9.52 202.23-9.42L202.23-9.42Q202.28-8.98 202.01-8.37 201.74-7.76 201.43-7.08 201.11-6.4 200.84-5.66 200.57-4.93 200.57-4.3L200.57-4.3Q200.57-4.1 200.62-3.91 200.67-3.71 200.62-3.56L200.62-3.56 200.57-3.47Q200.08-3.08 199.86-2.47 199.64-1.86 199.52-1.2 199.4-0.54 199.23 0.1 199.06 0.73 198.67 1.22L198.67 1.22 198.67 1.27 198.62 1.32Q197.98 1.61 197.57 1.42 197.15 1.22 196.84 0.83 196.52 0.44 196.25-0.07 195.98-0.59 195.64-0.98L195.64-0.98Q195.44-1.61 195.49-2.08 195.54-2.54 195.93-3.03L195.93-3.03 196.03-3.08Q195.74-3.47 195.86-3.78 195.98-4.1 196.15-4.39 196.32-4.69 196.4-5 196.47-5.32 196.08-5.76L196.08-5.76 196.18-5.86Q196.81-6.49 196.86-7.3 196.91-8.11 196.79-8.94 196.66-9.77 196.64-10.6 196.62-11.43 197.1-12.11L197.1-12.11 197.15-12.16Q197.2-12.45 196.76-12.94 196.32-13.43 196.08-13.67L196.08-13.67Q195.79-12.94 195.32-12.92 194.86-12.89 194.3-13.04 193.74-13.18 193.2-13.28 192.66-13.38 192.22-12.94L192.22-12.94 191.98-12.74 191.88-12.94Q191.68-13.38 191.37-13.4 191.05-13.43 190.66-13.38L190.66-13.38Q190.07-13.33 189.56-13.31 189.05-13.28 188.51-13.28L188.51-13.28Q188.22-13.53 187.85-13.48 187.49-13.43 187.12-13.38 186.75-13.33 186.39-13.35 186.02-13.38 185.68-13.77L185.68-13.77Q185.34-13.62 184.6-12.62 183.87-11.62 183.07-10.4 182.26-9.18 181.55-8.03 180.84-6.88 180.6-6.45L180.6-6.45Q180.4-6.15 180.14-5.71 179.87-5.27 179.57-4.81 179.28-4.35 179.04-3.93 178.79-3.52 178.65-3.22L178.65-3.22 178.7-3.08Q178.7-2.59 178.55-2.32 178.4-2.05 178.18-1.88 177.96-1.71 177.77-1.59 177.57-1.46 177.43-1.32L177.43-1.32Q177.04-1.32 176.84-1.12 176.65-0.93 176.5-0.68 176.35-0.44 176.13-0.24 175.91-0.05 175.42-0.05L175.42-0.05Q175.23 0.2 175.18 0.29 175.13 0.39 175.03 0.68L175.03 0.68Q174.94 1.03 174.86 1.17 174.79 1.32 174.72 1.39 174.64 1.46 174.55 1.54 174.45 1.61 174.35 1.76L174.35 1.76Q174.06 1.81 173.91 1.66 173.76 1.51 173.62 1.29 173.47 1.07 173.35 0.85 173.23 0.63 173.03 0.54L173.03 0.54 173.08 0.39Q174.06-2.49 175.42-5.1 176.79-7.71 178.35-10.3L178.35-10.3Q178.45-10.5 178.5-10.69 178.55-10.89 178.65-11.08L178.65-11.08Q178.89-11.72 179.16-12.3 179.43-12.89 179.82-13.43L179.82-13.43Q180.16-13.96 180.43-14.45 180.7-14.94 180.94-15.48L180.94-15.48 180.84-15.58Q179.28-16.85 178.13-18.19 176.99-19.53 175.96-21.24L175.96-21.24Q175.72-21.68 175.47-22.14 175.23-22.61 174.99-23L174.99-23 174.94-23.05Q174.94-24.02 175.08-25 175.23-25.98 175.96-26.71L175.96-26.71 176.01-26.76 176.01-26.81Q176.25-27.29 176.55-27.54 176.84-27.78 177.16-27.93 177.48-28.08 177.82-28.2 178.16-28.32 178.5-28.61L178.5-28.61 178.5-28.66Q179.62-29.15 180.7-29.49 181.77-29.83 182.99-29.2L182.99-29.2 183.09-29.25Q183.53-29.49 184.16-29.52 184.8-29.54 185.29-29.54L185.29-29.54Q185.58-29.39 185.9-29.17 186.22-28.96 186.53-28.76 186.85-28.56 187.19-28.47 187.53-28.37 187.83-28.52L187.83-28.52 187.88-28.52 187.88-28.56Q188.36-29.05 188.66-29.96 188.95-30.86 189.27-31.88 189.58-32.91 189.98-33.91 190.37-34.91 191.05-35.64L191.05-35.64Q191.05-35.79 191.24-36.3 191.44-36.82 191.66-37.48 191.88-38.13 192-38.79 192.12-39.45 191.98-39.89L191.98-39.89 192.42-39.84Q192.61-40.04 192.66-40.19L192.66-40.19 192.61-40.33Q192.42-40.53 192.47-40.82 192.51-41.11 192.61-41.36L192.61-41.36 192.56-41.36 192.51-41.55Q192.66-41.6 193.08-41.75 193.49-41.89 193.93-42.09 194.37-42.29 194.74-42.43 195.1-42.58 195.15-42.58L195.15-42.58Q195.83-42.19 195.91-41.7 195.98-41.21 195.83-40.53L195.83-40.53Q195.79-40.19 195.81-39.97 195.83-39.75 195.83-39.45L195.83-39.45Q195.83-38.96 195.59-38.26 195.35-37.55 195.03-36.77 194.71-35.99 194.32-35.3 193.93-34.62 193.64-34.18L193.64-34.18 193.64-33.89Q193.64-32.86 193.34-31.76 193.05-30.66 192.61-29.59 192.17-28.52 191.66-27.49 191.15-26.46 190.66-25.54L190.66-25.54Q190.32-24.95 189.93-24.19 189.54-23.44 189.17-22.66 188.8-21.88 188.53-21.07 188.27-20.26 188.17-19.63L188.17-19.63 188.17-19.58 186.95-17.29Q187.14-17.04 187.56-16.87 187.97-16.7 188.44-16.55 188.9-16.41 189.36-16.33 189.83-16.26 190.17-16.26L190.17-16.26Q190.71-16.26 191.07-16.19 191.44-16.11 191.83-15.67L191.83-15.67 191.93-15.58 192.03-15.58Q192.42-15.67 192.71-15.67 193-15.67 193.39-15.67L193.39-15.67Q193.78-15.58 194.15-15.63 194.52-15.67 194.91-15.72L194.91-15.72 194.86-15.38Q195.1-15.14 195.25-15.04L195.25-15.04Q195.49-15.43 195.83-15.82L195.83-15.82Q196.03-15.53 196.18-15.38L196.18-15.38Q196.32-15.48 196.54-15.77 196.76-16.06 196.86-16.06L196.86-16.06 196.91-16.11 196.96-16.06Q197.84-15.77 198.57-15.87 199.3-15.97 200.18-15.97L200.18-15.97Q200.33-16.31 200.6-16.5 200.86-16.7 201.08-16.92 201.3-17.14 201.35-17.38 201.4-17.63 201.11-18.07L201.11-18.07 201.06-18.16Q201.06-18.16 201.23-18.46 201.4-18.75 201.6-19.12 201.79-19.48 201.96-19.78 202.13-20.07 202.18-20.17L202.18-20.17Q203.16-21.78 203.89-23.46 204.62-25.15 204.62-27.05L204.62-27.05 204.62-27.39Q204.72-27.44 204.82-27.44L204.82-27.44Q205.55-27.73 205.6-28.25 205.65-28.76 205.55-29.35 205.45-29.93 205.58-30.52 205.7-31.1 206.58-31.54L206.58-31.54 206.67-31.59 206.72-31.69Q207.02-32.42 207.24-33.18 207.46-33.94 207.75-34.67L207.75-34.67Q208.68-36.87 209.12-39.4L209.12-39.4Q209.21-39.99 209.58-40.45 209.95-40.92 210.34-41.38 210.73-41.85 211.04-42.36 211.36-42.87 211.36-43.51L211.36-43.51Q211.36-43.9 211.26-44.04L211.26-44.04 211.26-44.19 211.36-44.24Q212.34-44.73 212.88-45.46 213.41-46.19 213.41-47.31L213.41-47.31Q213.41-47.46 213.39-47.85 213.36-48.24 213.27-48.34L213.27-48.34Q213.71-48.63 214.19-49.12L214.19-49.12 214.29-49.07Q215.22-48.39 215.44-47.68 215.66-46.97 215.54-46.24 215.41-45.51 215.17-44.73 214.93-43.95 214.93-43.12L214.93-43.12 214.88-43.07Q214.15-41.8 213.71-40.19 213.27-38.57 213.27-37.06L213.27-37.06Q212.73-37.06 212.61-36.82 212.49-36.57 212.41-36.21 212.34-35.84 212.22-35.45 212.09-35.06 211.61-34.77L211.61-34.77 211.7-34.62Q211.7-34.52 211.73-34.47 211.75-34.42 211.75-34.33L211.75-34.33Q211.75-34.03 211.61-33.81 211.46-33.59 211.31-33.37 211.17-33.15 211.14-32.91 211.12-32.67 211.36-32.37L211.36-32.37Q211.56-32.08 211.61-32.03L211.61-32.03 211.07-32.03Q210.29-30.52 209.65-28.96 209.02-27.39 208.48-25.78L208.48-25.78Q208.04-24.41 207.55-23.1 207.07-21.78 206.38-20.51L206.38-20.51 206.38-20.36Q206.82-19.53 206.45-19.04 206.09-18.55 205.67-18.19 205.26-17.82 205.11-17.48 204.97-17.14 205.8-16.6L205.8-16.6Q206.43-17.24 206.97-17.04 207.5-16.85 208.29-16.65L208.29-16.65Q208.43-16.8 208.55-16.92 208.68-17.04 208.97-16.94L208.97-16.94Q209.02-16.89 209.07-16.87 209.12-16.85 209.16-16.8L209.16-16.8Q209.46-17.24 209.7-17.29 209.95-17.33 210.19-17.24 210.43-17.14 210.68-17.04 210.92-16.94 211.17-17.09L211.17-17.09Q211.31-17.19 211.36-17.41 211.41-17.63 211.51-17.82L211.51-17.82Q212.24-17.09 212.75-17.11 213.27-17.14 213.73-17.41 214.19-17.68 214.66-17.92 215.12-18.16 215.76-17.87L215.76-17.87Q216.29-17.87 216.86-17.99 217.42-18.12 217.95-18.21L217.95-18.21Q219.37-18.46 220.74-18.6 222.1-18.75 223.52-18.51L223.52-18.51ZM186.02-27.49L186.02-27.49Q185.58-27.49 185.21-27.44 184.85-27.39 184.56-27.1L184.56-27.1Q184.51-27.15 184.46-27.15L184.46-27.15Q182.55-27.69 180.8-26.95 179.04-26.22 177.77-24.85L177.77-24.85 177.67-24.46Q177.62-24.32 177.62-24.15 177.62-23.97 177.62-23.88L177.62-23.88Q177.62-22.95 178.06-22.17L178.06-22.17Q178.35-21.58 178.77-21.19 179.18-20.8 179.7-20.46 180.21-20.12 180.72-19.78 181.24-19.43 181.67-18.95L181.67-18.95Q182.65-18.95 183.02-19.46 183.38-19.97 183.55-20.68 183.73-21.39 183.92-22.12 184.12-22.85 184.75-23.29L184.75-23.29Q184.8-23.29 184.8-23.32 184.8-23.34 184.85-23.34L184.85-23.34Q184.65-23.83 184.87-24.32 185.09-24.8 185.41-25.29 185.73-25.78 185.95-26.32 186.17-26.86 186.02-27.49ZM248.42-15.33L248.42-15.33Q248.62-14.6 248.27-14.09 247.93-13.57 247.37-13.18 246.81-12.79 246.15-12.48 245.49-12.16 245.05-11.77L245.05-11.77Q242.85-11.28 241.07-11.06 239.29-10.84 237.14-10.5L237.14-10.5Q236.51-10.4 235.94-10.52 235.38-10.64 234.8-10.6L234.8-10.6Q234.46-10.6 234.16-10.62 233.87-10.64 233.58-10.6L233.58-10.6Q232.45-10.5 232.11-9.84 231.77-9.18 231.55-8.33 231.33-7.47 231.01-6.71 230.7-5.96 229.67-5.66L229.67-5.66Q229.57-5.42 229.74-5.22 229.91-5.03 230.01-4.88L230.01-4.88Q229.18-4.64 228.91-4 228.64-3.37 228.45-2.73 228.25-2.1 227.89-1.66 227.52-1.22 226.5-1.37L226.5-1.37Q224.98 0.24 222.93 1.25 220.88 2.25 218.68 2.54L218.68 2.54Q218.29 2.34 217.93 2.05 217.56 1.76 217.19 1.51 216.83 1.27 216.41 1.15 216 1.03 215.46 1.12L215.46 1.12Q215.41 0.1 215.05-0.78 214.68-1.66 214.09-2.44L214.09-2.44Q214-3.32 214.31-4.08 214.63-4.83 214.97-5.57 215.31-6.3 215.53-7.06 215.75-7.81 215.46-8.79L215.46-8.79Q215.95-9.08 216.12-9.47 216.29-9.86 216.36-10.28 216.44-10.69 216.58-11.06 216.73-11.43 217.27-11.67L217.27-11.67Q216.88-12.84 217.39-13.4 217.9-13.96 218.63-14.4 219.37-14.84 220-15.38 220.64-15.92 220.49-16.99L220.49-16.99Q220.78-17.29 221.17-17.48 221.56-17.68 221.93-17.85 222.3-18.02 222.64-18.21 222.98-18.41 223.27-18.75L223.27-18.75Q222.93-18.99 222.96-19.24 222.98-19.48 223.08-19.75 223.18-20.02 223.3-20.31 223.42-20.61 223.27-20.9L223.27-20.9Q224.59-20.7 225.59-21.26 226.59-21.83 227.5-22.41 228.4-23 229.33-23.24 230.26-23.49 231.48-22.66L231.48-22.66Q231.57-22.31 231.79-21.66 232.01-21 232.23-20.31 232.45-19.63 232.65-18.99 232.84-18.36 232.89-18.07L232.89-18.07Q232.89-17.82 232.89-17.29 232.89-16.75 232.89-16.14 232.89-15.53 232.89-14.99 232.89-14.45 232.89-14.16L232.89-14.16Q234.31-13.33 235.72-13.16 237.14-12.99 238.56-13.82L238.56-13.82Q239.09-13.33 239.58-13.55 240.07-13.77 240.53-14.06 241-14.36 241.49-14.38 241.97-14.4 242.46-13.57L242.46-13.57Q243.15-14.21 243.88-14.38 244.61-14.55 245.39-14.58 246.17-14.6 246.93-14.7 247.69-14.79 248.42-15.33ZM229.67-14.5L229.67-14.5Q229.67-15.23 229.91-16.06 230.16-16.89 230.3-17.7 230.45-18.51 230.28-19.24 230.11-19.97 229.33-20.56L229.33-20.56Q228.79-20.26 228.45-19.75 228.11-19.24 227.77-18.73 227.42-18.21 226.96-17.87 226.5-17.53 225.76-17.68L225.76-17.68Q225.52-17.09 225.76-16.72 226.01-16.36 226.35-16.04 226.69-15.72 227.01-15.38 227.33-15.04 227.23-14.5L227.23-14.5Q227.42-14.36 227.77-14.23 228.11-14.11 228.47-14.09 228.84-14.06 229.18-14.16 229.52-14.26 229.67-14.5ZM229.33-10.6L229.33-10.6Q228.35-10.6 227.64-11.06 226.94-11.52 226.23-12.11 225.52-12.7 224.76-13.21 224.01-13.72 222.93-13.82L222.93-13.82Q222.49-13.23 221.91-12.72 221.32-12.21 220.88-11.62 220.44-11.04 220.27-10.35 220.1-9.67 220.49-8.79L220.49-8.79Q219.37-8.25 218.98-7.25 218.59-6.25 218.46-5.08 218.34-3.91 218.24-2.73 218.15-1.56 217.61-0.63L217.61-0.63 218.68-1.37Q218.88-1.27 219-1.07 219.12-0.88 219.03-0.63L219.03-0.63Q219.42-1.03 219.9-1.25 220.39-1.46 220.91-1.59 221.42-1.71 221.93-1.81 222.44-1.9 222.93-2.1L222.93-2.1Q224.15-1.42 224.69-1.81 225.23-2.2 225.57-2.98 225.91-3.76 226.3-4.61 226.69-5.47 227.57-5.66L227.57-5.66 227.23-6.01Q228.06-7.03 228.72-8.13 229.38-9.23 229.33-10.6ZM280.45-5.66L276.2-2.44Q275.61-2.44 275.3-2.42 274.98-2.39 274.74-2.34 274.49-2.29 274.2-2.15 273.91-2 273.42-1.71L273.42-1.71Q273.22-1.17 272.9-0.9 272.59-0.63 272.17-0.46 271.76-0.29 271.32-0.12 270.88 0.05 270.49 0.44L270.49 0.44Q266.78 1.03 263.94-1.22L263.94-1.22Q263.6-1.46 263.33-1.76 263.07-2.05 262.72-2.29L262.72-2.29Q262.48-2.49 262.46-2.47 262.43-2.44 262.24-2.69L262.24-2.69Q261.89-3.17 261.82-3.88 261.75-4.59 261.6-5.25 261.45-5.91 261.04-6.37 260.62-6.84 259.6-6.79L259.6-6.79Q259.11-5.76 258.21-4.71 257.3-3.66 256.18-2.83 255.06-2 253.81-1.46 252.57-0.93 251.44-0.93L251.44-0.93Q251.05 0.2 250.1 0.76 249.15 1.32 248.08 1.61L248.08 1.61Q247.98 1.66 247.69 1.73 247.39 1.81 247.34 1.81L247.34 1.81Q246.66 1.86 246.27 1.56 245.88 1.27 245.54 0.93 245.19 0.59 244.8 0.29 244.41 0 243.73 0L243.73 0Q243.19-1.27 242.66-2.49 242.12-3.71 241.87-4.98L241.87-4.98Q242.31-5.22 242.34-5.59 242.36-5.96 242.36-6.35L242.36-6.35Q241.58-6.59 241.56-6.96 241.53-7.32 241.7-7.71 241.87-8.11 242.05-8.47 242.22-8.84 241.87-9.08L241.87-9.08Q242.27-12.06 243.58-14.84 244.9-17.63 247.34-19.48L247.34-19.48Q247.05-20.41 247.51-20.9 247.98-21.39 248.64-21.44 249.3-21.48 249.91-21.12 250.52-20.75 250.52-19.97L250.52-19.97Q250.57-19.63 250.47-19.29 250.37-18.95 250.27-18.65L250.27-18.65Q249.98-17.19 249.39-15.82 248.81-14.45 248.12-13.13 247.44-11.82 246.73-10.5 246.02-9.18 245.54-7.76L245.54-7.76Q244.95-7.37 245.15-6.93 245.34-6.49 245.66-6.08 245.98-5.66 246-5.27 246.02-4.88 245.1-4.54L245.1-4.54Q244.8-3.86 245.24-3.34 245.68-2.83 245.98-2.29L245.98-2.29Q246.37-2.25 246.73-2.29 247.1-2.34 247.34-2.73L247.34-2.73Q247.93-2.34 248.39-2.59 248.86-2.83 249.37-3.2 249.88-3.56 250.49-3.81 251.1-4.05 251.88-3.66L251.88-3.66Q252.23-4 252.45-4.49 252.67-4.98 252.91-5.42 253.15-5.86 253.52-6.15 253.89-6.45 254.57-6.35L254.57-6.35Q255.25-7.57 256.38-8.37 257.5-9.18 258.65-9.91 259.79-10.64 260.7-11.47 261.6-12.3 261.85-13.62L261.85-13.62Q262.77-15.09 263.73-16.92 264.68-18.75 265.95-19.97L265.95-19.97Q266.09-20.36 266.44-20.58 266.78-20.8 267.17-20.87 267.56-20.95 267.95-20.83 268.34-20.7 268.63-20.41L268.63-20.41Q268.73-19.53 268.41-18.8 268.1-18.07 267.73-17.36 267.36-16.65 267.17-15.87 266.97-15.09 267.31-14.06L267.31-14.06Q266.63-13.67 265.97-13.38 265.31-13.09 264.75-12.74 264.19-12.4 263.77-11.87 263.36-11.33 263.21-10.45L263.21-10.45Q264.53-9.96 264.77-9.23 265.02-8.5 265.02-7.64 265.02-6.79 265.14-5.88 265.26-4.98 266.39-4.1L266.39-4.1Q266.58-3.96 266.65-3.88 266.73-3.81 266.97-3.71L266.97-3.71Q267.46-3.56 267.85-3.74 268.24-3.91 268.61-4.05 268.97-4.2 269.39-4.17 269.8-4.15 270.34-3.56L270.34-3.56Q271.07-4.49 271.71-3.56L271.71-3.56Q272.29-4.64 272.78-4.79 273.27-4.93 273.73-4.88 274.2-4.83 274.69-4.98 275.18-5.13 275.76-6.2L275.76-6.2 276.2-5.76Q276.49-6.54 276.91-6.52 277.32-6.49 277.71-6.37 278.11-6.25 278.4-6.37 278.69-6.49 278.69-7.52L278.69-7.52Q279.13-7.52 279.45-7.71 279.77-7.91 280.08-8.15 280.4-8.4 280.79-8.57 281.18-8.74 281.72-8.74L281.72-8.74 280.45-5.66ZM311.65-12.21L311.65-12.21Q311.4-10.69 311.06-9.89 310.72-9.08 310.21-8.57 309.69-8.06 308.91-7.59 308.13-7.13 307.06-6.25L307.06-6.25Q306.67-5.96 306.33-5.71 305.98-5.47 305.64-5.13L305.64-5.13Q304.67-4.83 303.25-4.17 301.83-3.52 300.34-2.86 298.85-2.2 297.51-1.71 296.17-1.22 295.34-1.32L295.34-1.32Q295.05-0.93 294.31-0.83 293.58-0.73 293.19-0.73L293.19-0.73Q292.56-0.73 291.9-0.63 291.24-0.54 290.75-0.05L290.75-0.05Q290.65 0.05 290.63 0.07 290.6 0.1 290.63 0.1 290.65 0.1 290.63 0.12 290.6 0.15 290.5 0.29L290.5 0.29Q289.97 0.93 289.41 0.98 288.84 1.03 288.31 0.81 287.77 0.59 287.21 0.24 286.65-0.1 286.09-0.27 285.52-0.44 284.94-0.32 284.35-0.2 283.77 0.49L283.77 0.49Q283.42-0.39 282.69-0.54 281.96-0.68 281.2-0.71 280.45-0.73 279.76-0.85 279.08-0.98 278.83-1.76L278.83-1.76 278.83-1.81 277.81-2.69 277.66-2.54Q277.42-2.29 277.27-2 277.13-1.71 276.93-1.46L276.93-1.46Q276.54-0.88 276.1-0.32 275.66 0.24 275.1 0.66 274.54 1.07 273.9 1.29 273.27 1.51 272.54 1.42L272.54 1.42Q272.54 0.24 273.2-0.73 273.85-1.71 274.46-2.66 275.08-3.61 275.25-4.61 275.42-5.62 274.44-6.74L274.44-6.74Q274.39-7.42 273.83-8.08 273.27-8.74 272.78-9.4 272.29-10.06 272.22-10.69 272.15-11.33 273.07-11.96L273.07-11.96Q272.63-12.06 272.49-12.3L272.49-12.3Q272.49-12.55 272.61-12.82 272.73-13.09 272.83-13.33L272.83-13.33Q273.12-13.33 273.44-13.45 273.76-13.57 274.03-13.65 274.29-13.72 274.51-13.65 274.73-13.57 274.93-13.18L274.93-13.18Q275.08-12.89 275.17-12.55 275.27-12.21 275.42-11.87L275.42-11.87Q275.81-10.89 276.39-10.03 276.98-9.18 277.71-8.45L277.71-8.45 277.86-8.3Q277.86-8.35 278.05-8.54 278.25-8.74 278.49-8.96 278.74-9.18 278.93-9.38 279.13-9.57 279.23-9.67L279.23-9.67Q279.81-10.21 280.35-10.69 280.89-11.18 281.3-11.69 281.72-12.21 281.94-12.87 282.16-13.53 282.16-14.4L282.16-14.4Q283.67-15.43 285.13-16.67 286.6-17.92 288.11-19.09 289.63-20.26 291.26-21.19 292.9-22.12 294.8-22.46L294.8-22.46Q295.24-21.68 295.83-21.24 296.41-20.8 296.97-20.36 297.54-19.92 298-19.29 298.46-18.65 298.66-17.53L298.66-17.53Q299.05-15.43 298.68-13.57 298.32-11.72 297.63-9.72L297.63-9.72Q297.24-8.54 296.93-7.32 296.61-6.1 296.61-4.83L296.61-4.83 296.95-4.74Q297.39-5.32 297.95-5.47 298.51-5.62 299.1-5.66 299.68-5.71 300.25-5.83 300.81-5.96 301.2-6.54L301.2-6.54Q301.83-6.3 302.39-6.52 302.96-6.74 303.49-7.13 304.03-7.52 304.57-7.96 305.1-8.4 305.69-8.54L305.69-8.54 305.64-8.94Q306.52-9.52 307.16-9.77 307.79-10.01 308.33-10.25 308.86-10.5 309.4-10.94 309.94-11.38 310.62-12.4L310.62-12.4Q310.87-12.5 311.18-12.48 311.5-12.45 311.65-12.21ZM294.61-17.04L294.61-17.04Q294.36-17.14 294.09-17.21 293.83-17.29 293.58-17.43L293.58-17.43Q293.14-17.72 292.75-17.87 292.36-18.02 291.82-17.77L291.82-17.77 291.82-17.68 291.77-17.68Q289.28-15.77 287.16-13.5 285.04-11.23 282.69-9.08L282.69-9.08 282.25-9.52Q281.91-9.08 281.89-8.59 281.86-8.11 281.86-7.67 281.86-7.23 281.76-6.84 281.67-6.45 281.18-6.1L281.18-6.1 281.03-6.01Q281.23-5.32 281.59-5.15 281.96-4.98 282.37-5 282.79-5.03 283.18-5.08 283.57-5.13 283.82-4.93L283.82-4.93Q283.96-4.83 284.01-4.64 284.06-4.44 284.06-4.3L284.06-4.3Q284.3-4.3 284.57-4.3 284.84-4.3 285.13-4.35L285.13-4.35Q285.67-4.44 286.28-4.37 286.89-4.3 286.99-3.61L286.99-3.61Q287.97-4 288.99-4.44 290.02-4.88 290.65-5.86L290.65-5.86 290.99-5.52Q291.04-5.52 291.07-5.54 291.09-5.57 291.14-5.57L291.14-5.57Q292.36-6.3 293.07-7.71 293.78-9.13 294.12-10.79 294.46-12.45 294.53-14.11 294.61-15.77 294.61-17.04ZM343.33-14.94L343.33-14.94Q342.89-14.5 342.68-14.26 342.46-14.01 342.28-13.79 342.11-13.57 341.89-13.33 341.67-13.09 341.23-12.6L341.23-12.6Q340.84-12.21 340.5-11.77 340.16-11.33 339.72-10.99L339.72-10.99Q339.14-11.13 338.82-10.84 338.5-10.55 338.23-10.18 337.96-9.81 337.74-9.5 337.52-9.18 337.18-9.23L337.18-9.23Q336.01-8.59 334.84-8.13 333.67-7.67 332.59-6.79L332.59-6.79 332.2-7.18 327.12-4.74Q326.88-4.64 326.64-4.44 326.39-4.25 326.15-4.1L326.15-4.1Q325.07-3.52 323.93-3.05 322.78-2.59 321.65-2.2L321.65-2.2 321.02-2Q321.41-1.03 321.02-0.63 320.63-0.24 319.9-0.07 319.16 0.1 318.29 0.15 317.41 0.2 316.92 0.49L316.92 0.49Q316.33 0.39 315.72 0.42 315.11 0.44 314.48 0.54L314.48 0.54Q313.79 0.63 313.21 0.63 312.62 0.63 311.94 0.49L311.94 0.49 311.84 0.49Q311.01 0.88 310.4 0.66 309.79 0.44 309.3-0.07 308.81-0.59 308.4-1.29 307.98-2 307.54-2.59L307.54-2.59Q307.25-2.98 306.81-3.71 306.37-4.44 306.05-5.27 305.74-6.1 305.66-6.96 305.59-7.81 306.03-8.45L306.03-8.45Q306.47-9.08 306.74-9.81 307.01-10.55 307.01-11.52L307.01-11.52Q307.01-11.87 306.98-12.16 306.96-12.45 306.96-12.79L306.96-12.79Q307.2-12.79 307.49-12.77 307.79-12.74 308.06-12.77 308.32-12.79 308.5-12.96 308.67-13.13 308.67-13.57L308.67-13.57Q308.67-13.82 308.5-13.96 308.32-14.11 308.28-14.26L308.28-14.26Q308.57-14.7 308.84-14.97 309.11-15.23 309.3-15.5 309.5-15.77 309.59-16.14 309.69-16.5 309.55-17.14L309.55-17.14Q310.13-18.16 310.94-18.97 311.74-19.78 312.62-20.48 313.5-21.19 314.43-21.88 315.36-22.56 316.19-23.34L316.19-23.34Q317.11-22.95 317.68-23.34 318.24-23.73 318.68-24.19 319.12-24.66 319.56-24.95 319.99-25.24 320.73-24.71L320.73-24.71 320.82-24.61Q322.14-25.93 323.49-25.78 324.83-25.63 325.78-24.9 326.73-24.17 327.03-23.22 327.32-22.27 326.49-21.92L326.49-21.92Q327.03-21.39 327.03-20.65L327.03-20.65Q327.03-19.92 326.64-19.38L326.64-19.38Q326.2-18.8 325.88-18.19 325.56-17.58 325.22-16.89L325.22-16.89Q324.73-15.77 324.14-14.77 323.56-13.77 322.48-13.09L322.48-13.09Q321.61-13.33 321.29-12.89 320.97-12.45 320.82-11.94 320.68-11.43 320.48-11.13 320.29-10.84 319.65-11.33L319.65-11.33 319.56-11.43 319.46-11.33Q319.07-10.94 318.85-10.45 318.63-9.96 318.24-9.72L318.24-9.72Q317.8-9.86 317.31-9.96 316.82-10.06 316.38-10.16L316.38-10.16Q316.38-9.13 315.99-8.54 315.6-7.96 314.99-7.59 314.38-7.23 313.6-7.01 312.82-6.79 312.06-6.47 311.3-6.15 310.64-5.69 309.98-5.22 309.59-4.39L309.59-4.39Q310.08-3.86 310.81-3.78 311.55-3.71 312.33-3.78 313.11-3.86 313.87-3.86 314.62-3.86 315.21-3.47L315.21-3.47 315.26-3.42 315.31-3.47Q316.48-3.61 317.58-4.03 318.68-4.44 319.73-4.91 320.78-5.37 321.87-5.79 322.97-6.2 324.14-6.4L324.14-6.4Q324.39-6.01 324.8-5.96 325.22-5.91 325.61-6.01L325.61-6.01 325.66-6.1Q325.76-6.45 325.85-6.71 325.95-6.98 326.15-7.32L326.15-7.32Q326.49-7.86 326.98-8.15 327.47-8.45 328.03-8.59 328.59-8.74 329.22-8.79 329.86-8.84 330.49-8.94L330.49-8.94 330.59-8.94 330.64-9.08Q330.83-9.67 331.15-9.89 331.47-10.11 331.84-10.21 332.2-10.3 332.62-10.35 333.03-10.4 333.42-10.64L333.42-10.64Q334.3-10.35 334.89-10.84 335.47-11.33 336.01-11.87L336.01-11.87 336.4-11.38 336.55-11.57Q337.28-12.26 337.65-12.6 338.01-12.94 338.35-13.21 338.7-13.48 339.16-13.75 339.62-14.01 340.45-14.55L340.45-14.55Q341.14-14.99 341.8-15.43 342.46-15.87 343.09-16.41L343.09-16.41Q343.33-16.31 343.33-16.04 343.33-15.77 343.33-15.53L343.33-15.53Q343.29-15.43 343.26-15.23 343.24-15.04 343.33-14.94ZM323.12-21.04L323.12-21.04Q323.07-21.09 323.05-21.09 323.02-21.09 322.97-21.14L322.97-21.14Q321.95-21.68 321.26-21.66 320.58-21.63 320.02-21.26 319.46-20.9 318.99-20.34 318.53-19.78 318.02-19.31 317.5-18.85 316.82-18.6 316.14-18.36 315.16-18.65L315.16-18.65Q315.01-17.87 314.89-17.11 314.77-16.36 314.72-15.58L314.72-15.58Q313.89-15.28 313.43-14.75 312.96-14.21 312.65-13.57 312.33-12.94 312.06-12.23 311.79-11.52 311.35-10.89L311.35-10.89 311.55-10.64Q311.74-10.74 311.99-10.5 312.23-10.25 312.33-10.16L312.33-10.16Q312.87-10.94 313.77-11.47 314.67-12.01 315.62-12.48 316.58-12.94 317.46-13.48 318.33-14.01 318.77-14.89L318.77-14.89Q320.34-15.33 321.12-16.65 321.9-17.97 322.44-19.38L322.44-19.38Q322.53-19.68 322.8-20.24 323.07-20.8 323.12-21.04Z" opacity="1" transform="matrix(1,0,0,1,0,0)" fill="#DFCAA0" class="wordmark-text-0" data-fill-palette-color="primary" id="text-0"></path></svg></g></svg></g></svg></g></svg></g><g></g></svg></g><defs></defs></svg><rect width="395.52" height="61.18661609217916" fill="none" stroke="none" visibility="hidden"></rect></g></svg></g></svg>