<?xml version="1.0" encoding="UTF-8"?>
<svg id="Layer_1" data-name="Layer 1" xmlns="http://www.w3.org/2000/svg" width="201" height="79" viewBox="0 0 459.11 193.33">
  <defs>
    <style>
      .cls-1 {
        stroke-width: 0px;
      }

      .cls-2 {
        font-family: CenturyGothic-Bold, 'Century Gothic';
        font-size: 38.56px;
        font-weight: 700;
        letter-spacing: 1.33em;
      }
    </style>
  </defs>
  <text class="cls-2" transform="translate(.47 181.6)"><tspan x="0" y="0" fill="#d4b0a5" >STUDIOS</tspan></text>
  <g>
    <polygon class="cls-1" points=".47 124.73 .47 131.31 369.17 131.31 375.39 124.73 .47 124.73" />
    <path class="cls-1" d="m405.28,124.73s-1.11,4.24-3.89,6.59h57.72v-6.59h-53.83Z"/>
  </g>
  <g>
    <g>
      <path class="cls-1" d="m116.8,29.67c2.04-2.94,4.2-5.84,6.52-8.51.31-.36.28-.9-.06-1.22-.36-.34-.92-.32-1.25.04-15.24,15.8-23.08,36.72-33.65,55.49-7.46,12.83-17.47,27-33.39,28.19-2.42.11-6.8.49-7.45-2.28-1-7.69,9.24-21.85,13.68-28.36,2.05-2.87,4.21-5.73,6.35-8.48,1.22-1.47,1.27-3.54-.32-4.77-1.36-1.03-3.3-.76-4.33.61-.03.04-.06.07-.09.11h0c-2.51,2.76-4.78,5.58-7.04,8.49-.6.8-1.25,1.67-1.93,2.59-.38.45-.76.89-1.14,1.34-6.91,8.04-14.15,16.02-22.25,22.76-4.84,3.81-11.47,9.15-17.71,6.62-1.45-.66-2.81-2.14-3.34-3.59-.19-.58-.38-1.36-.51-1.95-1.21-5.94,1.64-11.41,5.09-16.19,4.54-6.3,10.01-11.88,15.42-17.63,5.6-5.93,11.24-11.99,16.03-18.71,3.82-5.4,6.73-11.16,4.74-18.05-1.48-6.12-6.68-10.77-12.36-13-5.74-2.31-12.72-1.56-17.84,1.84-7.32,4.75-11.52,12.95-14.3,20.75-1.82,5.29-3.12,10.92-2.27,16.59.81,5.98,5.49,10.95,11.63,11.53,1.14.1,1.41-1.58.26-1.81-8.57-1.73-10.25-10.05-8.3-17.57,2.83-10.56,9.83-26.15,22.1-27.09,8.45-.58,17.98,7.77,14.33,16.54-1.91,4.28-5.52,8.33-8.74,11.96-7.17,7.94-15.25,14.93-22.45,23.01-7.32,8.07-14.82,18.95-11.34,30.77,1.45,6.4,7.5,11.29,14.02,11.19,9.85.26,19.8-10.45,26.91-18.68-1.36,3.85-1.97,7.59-1.27,10.87,3.44,12.85,24.12,7.02,31.63,1.24,9.36-6.6,15.52-16.46,20.64-26.42,8.2-16.08,13.36-33.48,23.99-48.2Z" fill="#d4b0a5" />
      <path class="cls-1" d="m92.05,99.1s.01,0,.02,0c0,0,0,0,0,0,0,0,0,0-.01,0Z"  />
      <path class="cls-1" d="m231.98,72.56c6.26-7.9,23.47-31.56,23.65-40.85-.47-4.59-5.26-4.79-8.51-3.49-6.32,2.15-10.38,6.45-14.65,11.01-7.96,8.67-14.55,18.48-19.5,29.15-3.98,8.82-8.83,19.97-7.1,30.01-1.44,1.25-2.92,2.45-4.47,3.58-5.23,3.9-15.55,9.03-18.44.3,7.14-5.45,12.95-12.78,17.64-20.36,1.88-3.44,4.11-6.99,3.81-11.18-.17-2.57-2.56-4.58-4.91-4.71-4.4-.33-8.3,1.77-11.77,4.06-5.23,3.66-9.42,8.78-11.42,14.97-1.66,5.12-1.2,12.43,1.47,17.89-5.52,3.48-11.69,5.43-17.94,4.23-2.57-.77-4.28-1.93-5.33-3.35,1.32-1,2.6-2.04,3.83-3.04,4.38-3.79,8.41-7.86,12.14-12.3,2.81-3.41,5.52-7.07,7.2-11.28,2.42-5.54.68-12.03-6.6-10.73-7.04,1.79-12.17,7.56-16.54,12.92-3.89,5-7.24,10.44-7.5,17.08-.19,2.63.47,5.39,1.83,7.73-3.1,1.48-6.52,2.7-9.66,1.42-2.99-1.35-3.54-5.05-2.94-7.84,1.41-4.74,5.35-8.25,8.79-11.87,2.29-2.36,5.1-4.77,7.01-7.61,1.89-2.69,1.18-6.39-2.19-7.52-5.32-1.46-10.54.07-15.06,2.65-1.3.78-2.55,1.61-3.76,2.49,9.81-12.21,18.38-25.49,25.14-37.97,2.02-4.09,4.03-8.41,4.41-13.08.19-2.27-1.1-4.22-3.41-5.01-2.64-1.24-5.05.43-7.05,1.56-2.37,1.47-4.41,3.12-6.36,4.86-19.5,18.2-33.69,45.05-38.31,71.77-5.2,4.31-10.26,7.45-14.59,8.29-.99.16-1.93.13-2.41-.11-.53-.26-1.06-.97-1.35-1.43-1.04-1.93,1.72-3.92,3.37-4.93.42-.25.86-.47,1.26-.63.11-.04.21-.08.3-.11-.13.02-.27.01-.6-.02.21.03.41.02.61.02.07-.02.14-.04.19-.05.06-.01.1-.02.06,0-.1.02-.17.04-.25.05,4.04-.06,4.85-6.12.48-6.96-2.29-.25-4.04,1.03-5.77,2.21-3.26,2.42-6.53,6.39-5.41,10.91.68,2.34,2.2,4.02,4.23,5.2,4.86,2.33,9.78-1.06,13.52-3.45,1.9-1.34,3.77-2.77,5.63-4.27-.2,1.55-.38,3.1-.51,4.64,0,0,7.45,2.48,7.45,2.48,1.38-2.28,2.93-4.65,4.49-6.91,5.47-7.73,17.51-24.11,28.11-25.86-1.35,1.36-2.91,2.75-4.05,3.85-4.47,4.47-9.11,8.72-10.52,15.59-1.27,6.74,4.09,12.88,10.79,13.15,3.68-.02,7.01-1.34,10.07-3.18,1.11,1.2,2.45,2.17,3.99,2.8,4.36,1.92,9.36,1.6,13.74.49,3.82-1.1,7.36-2.75,10.66-4.8,2.6,3.9,6.61,6.29,12.09,5.11,5.05-1.19,10.32-4.58,15.46-9,.25.83.55,1.64.91,2.45,2.72,5.93,8.49,9.47,14.19,11.69,2.46.93,3.93-2.56,1.67-3.72-4.49-2.32-9.1-5.38-10.87-10.14-.55-1.58-.83-3.23-.9-4.93,8.01-7.95,15.34-17.53,20.46-23.9Zm-78.54-45.98c.89-.6,1.84-1.12,2.57-1.39.35-.15.55-.55.69-.86.16-.3.06-.44.12-.38,2.16,5-15.47,32.02-19.31,37.49-4.43,6.44-12.63,17.22-21.56,26.64,4.55-16.66,12.39-32.46,22.75-46.28,4.31-5.59,9-11.19,14.73-15.21Zm12.09,51.08c2.39-2.44,4.71-5.01,7.82-5.74.12,0,0-.12.09-.12.07.03.25.28.32.72.51,8.96-11.5,22.81-20.33,29.03-1.93-7.35,7.64-18.76,12.11-23.88Zm17.85,9.73c2.01-5.54,6.29-10.97,11.35-14.47,1.56-1,3.3-2,5.04-1.92.06-.02.22.06.32.44.34,1.61-.21,3.42-.81,5.1-1.46,3.84-3.68,7.4-5.95,10.84-2.8,4.17-6.57,8.59-10.95,12.22-.63-4-.32-8.41,1.02-12.21Zm66.82-54.83c.07.15.12.31.15.49-.03-.04-.07-.08-.09-.13-.16-.3-.1-.41-.06-.36Zm-30.66,39.08c6.78-13.36,16.44-25.17,27.76-34.89,1.02-.95,2.02-1.88,3.07-2.6-.02.17-.04.34-.07.51-.52,2.55-1.78,5.08-2.92,7.47-5.08,9.97-11.75,19.21-17.91,28.58-3.15,4.69-6.6,9.17-10.19,13.52-2.45,2.93-4.97,5.82-7.62,8.58.86-7.37,4.84-15.16,7.87-21.19Z" fill="#d4b0a5" />
    </g>
    <path class="cls-1" d="m458.96,100.59c-.47-1.23-1.85-1.84-3.08-1.36-5.86,2.18-20.43,7.63-24.18.64-.41-1.09-.61-2.27-.62-3.49,3.37-1.37,6.69-3.02,9.87-4.7,4.62-2.54,9.3-5.09,13.16-8.8,3.06-2.85,4.41-7.13.56-10.08-5.18-3.97-10.95-3.77-16.26-.55-7.31,4.35-14.03,14.67-13.86,23.93-2.37,1.06-4.73,2.12-7.06,3.26-3.51,1.62-6.91,3.42-10.22,5.37-.34-1.63-.82-3.28-1.05-4.91-.11-.68-.19-1.36-.26-2.05,8.18-5.55,16.6-13.1,17.36-20.59.14-2.53.29-5.19-.68-7.76-1.89-4.51-7.69-4.19-11.17-2.08-10.63,6.49-14.49,20.07-13.14,31.9-4.85,2.77-10.07,4.97-15.5,5.67-1.79.28-3.96.45-4.56.05-.23-.15-.15-.17-.23-.49-.07-.39-.02-1.14.16-1.92.81-3.44,2.82-7,4.65-10.17,4.03-6.76,8.83-13.35,13.69-19.53l-.04-.03c.12-.15.24-.3.36-.45,1.23-1.57,1.13-3.84-.3-5.3-1.56-1.59-4.11-1.61-5.69-.05,0,0-.88.87-.88.87-4.8,6.86-9.19,13.8-12.97,21.35-.69,1.44-1.36,2.86-1.97,4.3-1.44,1.72-2.94,3.39-4.53,4.96-2.75,2.61-6.01,5.1-9.48,6.48-1.62.65-3.34.86-4.01.46-.83-.43-1.26-1.53-1.46-2.53-.72-6.38,4.93-13.97,8.66-19.08,2.33-3.02,4.94-6.12,7.55-8.82h0c.05-.05.09-.1.14-.14,4.11-4.22-1.81-10.38-6.19-6.42-.19.21-.38.43-.58.66,0,0-.05-.04-.05-.04-.12.17-.24.34-.36.51-2.93,3.44-6.78,8.47-9.94,13.96-.5.3-1.07.54-1.73.72-2.37.81-4.98,1.65-7.57,1.83.19-.9.36-1.79.5-2.68,1.22-7.86-.6-18.23-10.71-17.49-.29.03-.54.09-.77.18-3.59-.45-7.3,1.56-9.57,4.11-4.96,5.43-7.59,11.87-10.21,18.45-2.18,5.42-3.49,12.1-7.98,16.03-2.49,2.21-4.75-1.12-5.77-3.49-3.89-9.2,1.47-21.41,4.83-30.54,7.46-18.61,17.35-35.83,25.74-54.15,3.1-7.89-8.06-12.51-11.47-4.82-2.34,5.96-5.11,12.06-7.83,18.16-5.02,11.35-10.21,22.71-14.45,34.43-7.79,2.47-15.44,5.37-22.84,8.81,3.89-10.29,7.61-21.02,10.86-29.79,2.97-7.89,6.06-16.45,10.3-23.47,4.07-7.22-6.15-13.15-10.42-6.14-2.47,4.46-4.16,8.8-5.77,13.14-4.62,12.75-8.17,25.85-12.17,38.68-1.09,3.27-2.57,8.14-4.4,13.54-3.17,1.8-6.28,3.71-9.32,5.75-7.62,5.24-14.98,10.78-20.52,18.44-3.4,4.61-5.61,11.97.89,15.37,15.98,7.61,26.33-13.33,31.99-24.87,2.08-4.39,4.18-9.39,6.25-14.64,6.28-3.15,12.78-5.88,19.36-8.24,1.32-.46,2.65-.91,3.99-1.34-.84,2.52-1.63,5.05-2.35,7.61-1.84,6.95-3.54,14.59-1.93,21.85,1.19,5.09,3.7,10.33,8.62,12.96,5.84,3.06,11.54-.71,14.54-5.62.03.09.05.17.08.26,2.37,6.16,9.49,5.69,14.51,3.4,7.7-3.68,12.44-11.51,14.93-19.64,1.51.2,3.04.2,4.51,0,.47-.05,1.42-.17,1.89-.24.26-.04.51-.08.77-.12-2.85,6.75-3.82,13.5-.15,18.25,6.92,7.84,16.24-2.18,21.34-7.31-.05.26-.1.51-.14.77-.88,5.44,2.35,9.35,7.95,8.42,5.39-.8,10.04-3.65,14.81-5.99,1.04-.54,2.19-1.16,3.41-1.85.31,1.6.75,3.2,1.04,4.77.11.79.16,1.57.15,2.34-9.72,6.57-18.69,14.28-27.37,22.2-2.47,2.15-5.54,3.93-5.69,7.84,0,3.03,2.97,4.71,5.46,4.61,3.14-.03,6.12-1.18,8.71-2.29,4.03-1.79,7.71-4.05,11.17-6.68,8.46-6.45,16.41-16.47,15.38-27.82,5.41-3.09,11.1-5.84,17.18-8.36.23,1.31.62,2.59,1.2,3.8,3.64,7.31,13.23,7.29,19.92,5.36,4.19-1.11,8.1-2.7,11.85-4.52,1.09-.53,1.62-1.82,1.18-2.97Zm-217.25,13.58c-1.99.34-4.97.23-6.26-1.32-1.8-4.56,7.23-13.21,10.68-16.28,4.67-4.04,9.68-7.66,14.93-10.92-4.8,12.95-11.38,26.61-19.34,28.52Zm101.68-37.56c.44,3.08.22,6.32-.43,9.48-.81-.1-1.6-.3-2.38-.6-6.27-2.28-7.84-10.68-3.1-15.21,3.43-.57,5.47,2.86,5.9,6.33Zm-12.32,29.13c-2.89,1.83-8,3.6-10.96,1.37-1.06-.91-1.5-2.74-1.5-4.74.05-4.2,1.32-8.55,2.57-12.63.02-.06.04-.11.05-.17.71-2.07,1.49-4.18,2.36-6.25,2.06-4.46,4.95-8.57,9.18-10.81-1.23,3.37-.73,7.18.75,10.41,1.54,3.58,4.78,5.91,8.44,6.97-1.97,6.15-5.48,12.22-10.9,15.86Zm78.9-26.64c1.36-2.11,2.99-4.01,5.07-5.24.77-.42,1.35-.65,1.97-.65.06,0,.06-.06.13-.13.07-.07.23-.14.46-.1,1.05.32,1.46,1.55,1.5,2.7.67,7.39-7.43,14.37-13.32,18.79,0-5.41,1.33-10.83,4.2-15.36Zm-36.79,59.85c0-.07.03-.15.04-.22.04.16.05.29.04.37-.05.33-.13.11-.08-.15Zm14.59-9.55c-2.94,2.4-6.18,4.53-9.54,6.15-1.55.72-3.06,1.38-4.56,1.71.08-.2.16-.41.26-.61,1.13-2.78,3.29-4.9,5.39-7.03,6.49-6.88,13.2-12.57,20.39-17.43-1.23,6.84-6.59,12.78-11.94,17.21Zm54.15-51.19c2.81-1.69,5.87-1.82,8.91-1.4.74.11,1.33.41,1.41.47.04.03.06-.03.08.05-.29,1.71-2.07,3.24-3.39,4.5-2.87,2.56-6.24,4.79-9.66,6.88-2.51,1.6-5.13,2.99-7.8,4.28,1.35-5.98,6.03-12.2,10.46-14.79Z" fill="#d4b0a5" />
  </g>
</svg>