<?xml version="1.0" encoding="UTF-8"?>
<svg id="Layer_1" data-name="Layer 1" xmlns="http://www.w3.org/2000/svg" viewBox="0 0 1500 1500">
  <defs>
    <style>
      .cls-1, .cls-2 {
        fill: #fff;
        stroke-width: 0px;
      }

      .cls-2 {
        fill-rule: evenodd;
      }
    </style>
  </defs>
  <path class="cls-1" d="m1116.63,687.73h-8.89v-196.33h8.89c27.77,0,50.37,22.59,50.37,50.37v95.59c0,27.77-22.59,50.37-50.37,50.37Zm-1.14-7.75h1.14c23.5,0,42.62-19.12,42.62-42.62v-95.59c0-23.5-19.12-42.62-42.62-42.62h-1.14v180.83Z"/>
  <path class="cls-1" d="m1283.73,914.28h-62.88l-48.43-68.78h72.82l13.81,16.88,24.67.63v51.27Zm-58.86-7.75h51.11v-35.97l-20.67-.52-13.74-16.79h-54.22l37.52,53.28Z"/>
  <path class="cls-1" d="m849.31,166.71h-.1c-.31-1.29-.62-2.58-.93-3.82h.05c.36,1.24.67,2.53.98,3.82Z"/>
  <path class="cls-1" d="m849.31,166.71h-.1c-.31-1.29-.62-2.58-.93-3.82h.05c.36,1.24.67,2.53.98,3.82Z"/>
  <path class="cls-1" d="m849.78,170.59l-3.56.62c-.05-.15-.05-.36-.1-.52,1.19-.05,2.43-.1,3.67-.1Z"/>
  <path class="cls-1" d="m171.42,363.42c.88,1.65,1.81,3.31,2.69,4.91-.93-1.6-1.86-3.2-2.74-4.86l.05-.05Z"/>
  <path class="cls-1" d="m174.27,368.54c1.96,3.36,3.98,6.66,6.15,9.87-2.22-3.2-4.29-6.51-6.15-9.87Z"/>
  <path class="cls-1" d="m171.27,368.33c-.36.41-.67.83-.98,1.24-.88,1.03-1.76,2.12-2.53,3.2-.67-1.24-1.39-2.48-2.07-3.72.83-1.08,1.7-2.12,2.58-3.15v-.05l3,2.48Z"/>
  <path class="cls-1" d="m429.91,645c-4.49,3.25-9.14,6.3-13.9,9.14,4.75-2.84,9.4-5.94,13.9-9.14Z"/>
  <path class="cls-1" d="m436.73,639.81c1.74-1.38,3.45-2.81,5.14-4.25-1.7,1.44-3.4,2.87-5.14,4.25Z"/>
  <path class="cls-1" d="m166.78,354.07c1.39,3.2,3,6.3,4.6,9.4l.05-.05c-1.65-3.05-3.15-6.2-4.65-9.35Zm0,0c1.39,3.2,3,6.3,4.6,9.4l.05-.05c-1.65-3.05-3.15-6.2-4.65-9.35Z"/>
  <path class="cls-1" d="m888,440.19h-73.24l-22.67-153.25h119.2l-23.29,153.25Zm-66.55-7.75h59.89l20.93-137.75h-101.2l20.38,137.75Z"/>
  <path class="cls-1" d="m762.46,768.21h-33.87v-357.29h33.87v357.29Zm-26.12-7.75h18.37v-341.8h-18.37v341.8Z"/>
  <path class="cls-1" d="m592.52,768.21h-33.87v-357.29h33.87v357.29Zm-26.12-7.75h18.37v-341.8h-18.37v341.8Z"/>
  <path class="cls-1" d="m776.6,722.16c9.97,0,9.99-15.5,0-15.5s-9.99,15.5,0,15.5h0Z"/>
  <path class="cls-1" d="m776.6,660.61c9.97,0,9.99-15.5,0-15.5s-9.99,15.5,0,15.5h0Z"/>
  <path class="cls-1" d="m776.6,599.05c9.97,0,9.99-15.5,0-15.5s-9.99,15.5,0,15.5h0Z"/>
  <path class="cls-1" d="m776.6,537.49c9.97,0,9.99-15.5,0-15.5s-9.99,15.5,0,15.5h0Z"/>
  <path class="cls-1" d="m776.6,475.93c9.97,0,9.99-15.5,0-15.5s-9.99,15.5,0,15.5h0Z"/>
  <path class="cls-1" d="m611.44,722.16c9.97,0,9.99-15.5,0-15.5s-9.99,15.5,0,15.5h0Z"/>
  <path class="cls-1" d="m611.44,660.61c9.97,0,9.99-15.5,0-15.5s-9.99,15.5,0,15.5h0Z"/>
  <path class="cls-1" d="m611.44,599.05c9.97,0,9.99-15.5,0-15.5s-9.99,15.5,0,15.5h0Z"/>
  <path class="cls-1" d="m611.44,537.49c9.97,0,9.99-15.5,0-15.5s-9.99,15.5,0,15.5h0Z"/>
  <path class="cls-1" d="m611.44,475.93c9.97,0,9.99-15.5,0-15.5s-9.99,15.5,0,15.5h0Z"/>
  <path class="cls-1" d="m996.57,722.16c9.97,0,9.99-15.5,0-15.5s-9.99,15.5,0,15.5h0Z"/>
  <path class="cls-1" d="m996.57,660.61c9.97,0,9.99-15.5,0-15.5s-9.99,15.5,0,15.5h0Z"/>
  <path class="cls-1" d="m996.57,599.05c9.97,0,9.99-15.5,0-15.5s-9.99,15.5,0,15.5h0Z"/>
  <path class="cls-1" d="m996.57,537.49c9.97,0,9.99-15.5,0-15.5s-9.99,15.5,0,15.5h0Z"/>
  <path class="cls-1" d="m996.57,475.93c9.97,0,9.99-15.5,0-15.5s-9.99,15.5,0,15.5h0Z"/>
  <path class="cls-1" d="m574.43,889.9c1.32,0,2.6.12,3.87.3v-98.77h-7.75v98.77c1.27-.17,2.56-.3,3.87-.3Z"/>
  <path class="cls-1" d="m574.43,946.92c-1.32,0-2.6-.12-3.87-.3v98.77h7.75v-98.77c-1.27.17-2.56.3-3.87.3Z"/>
  <path class="cls-1" d="m836.73,905.91h-85.99l-22.15-22.15v-47.81h130.3v47.81l-22.16,22.15Zm-82.78-7.75h79.57l17.62-17.61v-36.85h-114.8v36.85l17.61,17.61Z"/>
  <polygon class="cls-1" points="1256.4 1028.95 1263.02 1024.93 1159.39 854.46 1150.32 854.46 1256.4 1028.95"/>
  <polygon class="cls-1" points="1139.39 1028.7 1146.76 1026.3 1090.72 854.46 1082.57 854.46 1139.39 1028.7"/>
  <polygon class="cls-1" points="1192.78 1029.08 1199.84 1025.91 1122.94 854.46 1114.45 854.46 1192.78 1029.08"/>
  <path class="cls-1" d="m446.08,642.26c1.09-.88,2.17-1.81,3.2-2.74v-.1c-1.03.93-2.12,1.86-3.2,2.84Z"/>
  <path class="cls-1" d="m426.09,790.26c-.21-.16-.41-.31-.62-.46v-.05c.21.16.41.31.62.52Z"/>
  <rect class="cls-1" x="1027.22" y="742.81" width="7.75" height="71.46"/>
  <path class="cls-1" d="m979.1,768.21h-33.87v-357.29h33.87v357.29Zm-26.12-7.75h18.37v-341.8h-18.37v341.8Z"/>
  <path class="cls-1" d="m82.94,822.08c-1.19-1.24-2.22-2.53-3.31-3.82l.05-.05c1.09,1.34,2.17,2.63,3.26,3.87Z"/>
  <path class="cls-1" d="m962.17,1049.27c-40.14,0-72.8-32.66-72.8-72.8s32.66-72.8,72.8-72.8,72.8,32.66,72.8,72.8-32.66,72.8-72.8,72.8Zm0-137.85c-35.87,0-65.05,29.18-65.05,65.05s29.18,65.05,65.05,65.05,65.05-29.18,65.05-65.05-29.18-65.05-65.05-65.05Z"/>
  <circle class="cls-1" cx="962.17" cy="976.47" r="23.34"/>
  <g>
    <path class="cls-1" d="m1092.57,196.87l-9.95,3.7c-1.22-4.63-3.18-7.47-5.89-8.51-1.32-.5-2.53-.56-3.64-.18-1.11.38-1.83,1.02-2.17,1.9-.34.89-.36,1.84-.06,2.86.41,1.37,2,4.57,4.76,9.59,2.6,4.68,4.15,7.59,4.65,8.73,1.24,2.84,1.94,5.36,2.07,7.56.13,2.2-.23,4.41-1.08,6.64-1.66,4.32-4.52,7.32-8.6,9-4.07,1.67-8.51,1.58-13.32-.26-3.76-1.43-6.68-3.61-8.76-6.52-2.09-2.91-3.36-6.72-3.84-11.43l10.39-1.85c.75,5.63,2.78,9.08,6.08,10.34,1.72.66,3.36.72,4.92.17,1.56-.56,2.59-1.5,3.09-2.81.46-1.2.47-2.56.04-4.09-.43-1.54-1.68-4.11-3.75-7.73-3.95-6.89-6.28-11.93-6.98-15.11-.7-3.19-.56-6.05.41-8.59,1.4-3.66,4-6.26,7.79-7.81,3.79-1.55,7.73-1.54,11.82.03,2.63,1,4.91,2.58,6.82,4.7,1.91,2.14,3.64,5.35,5.18,9.65Z"/>
    <path class="cls-1" d="m1185.93,237.8l25.58,17.89-6.07,8.69-8.43-5.9-26.3,37.61-8.94-6.25,26.3-37.6-8.21-5.75,6.08-8.68Z"/>
    <path class="cls-1" d="m1289.07,325.45l7.02,8.19-27.74,23.75c-2.39,2.05-3.9,3.71-4.53,4.97-.64,1.27-.83,2.64-.61,4.11.23,1.47.93,2.89,2.1,4.24,1.23,1.44,2.62,2.4,4.17,2.88,1.55.47,3.01.47,4.37,0,1.36-.47,3.48-1.94,6.35-4.4l26.72-22.89,7.02,8.2-25.58,21.9c-4.32,3.69-7.51,6.02-9.61,6.97-2.09.94-4.49,1.4-7.22,1.36-2.73-.04-5.24-.64-7.52-1.79-2.28-1.15-4.43-2.9-6.47-5.27-2.66-3.12-4.27-6.44-4.81-9.96-.54-3.53-.17-6.71,1.13-9.54,1.3-2.83,4.5-6.44,9.62-10.81l25.58-21.91Z"/>
    <path class="cls-1" d="m1374.07,447.38l5.38,11.54c3.47,7.45,5.12,13.4,4.96,17.88-.16,4.47-1.77,8.85-4.84,13.13-3.06,4.28-7.37,7.71-12.91,10.29-3.95,1.84-7.88,2.88-11.79,3.1-3.92.23-7.5-.3-10.76-1.59-3.26-1.29-5.93-3.09-8.02-5.39-2.09-2.31-4.67-6.77-7.76-13.4l-5.46-11.72,51.2-23.85Zm-4.89,14.05l-32.3,15.05,2.11,4.52c2.08,4.45,4.09,7.45,6.05,8.97,1.95,1.54,4.44,2.38,7.45,2.53,3.01.15,6.28-.6,9.81-2.24,5.43-2.53,8.94-6.01,10.52-10.45,1.42-4,.72-9.02-2.1-15.07l-1.54-3.31Z"/>
    <path class="cls-1" d="m1423.59,589.92l2.01,10.48-55.47,10.63-2.01-10.48,55.48-10.63Z"/>
    <path class="cls-1" d="m1434.49,736.28c-.55,7.98-3.9,14.63-10.07,19.97-6.17,5.34-13.4,7.73-21.7,7.15-8.23-.56-14.99-3.87-20.3-9.92-5.3-6.05-7.68-13.12-7.13-21.19.58-8.45,3.99-15.28,10.22-20.48,6.24-5.19,13.37-7.51,21.42-6.96,5.39.37,10.25,2.02,14.59,4.93,4.34,2.92,7.68,6.75,10.01,11.49,2.33,4.75,3.31,9.75,2.95,15.01Zm-10.49-.84c.36-5.22-1.15-9.72-4.54-13.52-3.38-3.8-7.87-5.89-13.46-6.28-6.24-.43-11.32,1.47-15.25,5.7-3.07,3.28-4.76,7.17-5.07,11.67-.35,5.08,1.19,9.54,4.62,13.38,3.43,3.83,7.84,5.93,13.23,6.31,5.36.36,10.03-1.12,13.99-4.47,3.97-3.35,6.12-7.61,6.48-12.77Z"/>
    <path class="cls-1" d="m1389.81,896.43l-3.95-9.86c4.61-1.33,7.39-3.36,8.36-6.09.47-1.33.51-2.54.1-3.64-.41-1.09-1.06-1.81-1.96-2.12-.89-.32-1.84-.31-2.85,0-1.35.44-4.51,2.11-9.48,5-4.61,2.71-7.48,4.33-8.62,4.86-2.8,1.31-5.3,2.06-7.5,2.24-2.2.18-4.42-.13-6.66-.92-4.37-1.55-7.44-4.35-9.21-8.38-1.77-4.03-1.8-8.46-.07-13.32,1.35-3.79,3.45-6.76,6.31-8.91,2.86-2.15,6.63-3.52,11.32-4.11l2.11,10.34c-5.61.89-9.01,3-10.2,6.34-.62,1.74-.63,3.37-.04,4.92.59,1.54,1.55,2.56,2.88,3.03,1.21.43,2.57.41,4.09-.06,1.52-.46,4.07-1.78,7.64-3.94,6.79-4.11,11.77-6.56,14.94-7.34,3.17-.78,6.03-.71,8.59.2,3.69,1.31,6.35,3.85,8,7.6s1.73,7.69.25,11.82c-.94,2.66-2.46,4.96-4.54,6.93-2.08,1.96-5.25,3.77-9.5,5.41Z"/>
  </g>
  <polygon class="cls-2" points="811.47 990.93 800.28 990.93 795.98 1066.34 814.34 1066.34 811.47 990.93"/>
  <polygon class="cls-2" points="764.46 990.93 753.27 990.93 725.91 1066.34 744.27 1066.34 764.46 990.93"/>
  <polygon class="cls-2" points="712.94 990.93 701.75 990.93 651.34 1066.34 669.7 1066.34 712.94 990.93"/>
  <polygon class="cls-2" points="845.87 990.93 857.06 990.93 884.42 1066.34 866.05 1066.34 845.87 990.93"/>
  <g>
    <g>
      <path class="cls-1" d="m474.5,1132.53c5.46-7.87,11.25-15.65,17.46-22.81.83-.96.76-2.4-.17-3.28-.95-.9-2.45-.85-3.35.1-40.84,42.34-61.84,98.38-90.15,148.66-19.99,34.38-46.8,72.33-89.45,75.54-6.48.29-18.23,1.3-19.96-6.1-2.67-20.62,24.77-58.55,36.66-75.98,5.48-7.69,11.29-15.37,17.01-22.71,3.27-3.93,3.41-9.49-.87-12.77-3.65-2.75-8.84-2.03-11.6,1.63-.07.1-.15.2-.23.29l-.02-.02c-6.71,7.43-12.81,14.97-18.86,22.75-1.61,2.14-3.35,4.46-5.18,6.94-1.02,1.19-2.03,2.39-3.05,3.58-18.53,21.55-37.9,42.93-59.6,60.97-12.97,10.21-30.74,24.52-47.46,17.73-3.89-1.78-7.53-5.74-8.95-9.63-.51-1.56-1.01-3.65-1.38-5.24-3.25-15.92,4.38-30.58,13.63-43.38,12.18-16.88,26.82-31.84,41.31-47.23,15-15.88,30.12-32.12,42.95-50.14,10.23-14.46,18.02-29.89,12.71-48.36-3.97-16.4-17.9-28.85-33.11-34.82-15.39-6.2-34.09-4.18-47.8,4.93-19.62,12.71-30.87,34.69-38.32,55.61-4.86,14.17-8.35,29.24-6.09,44.45,2.16,16.01,14.72,29.34,31.15,30.9,3.06.28,3.78-4.24.69-4.86-22.97-4.64-27.46-26.93-22.23-47.08,7.57-28.28,26.33-70.07,59.21-72.59,22.63-1.56,48.17,20.83,38.39,44.31-5.1,11.47-14.8,22.33-23.41,32.05-19.2,21.28-40.86,40-60.14,61.65-19.62,21.61-39.71,50.78-30.39,82.44,3.87,17.15,20.09,30.25,37.57,29.98,26.4.7,53.06-28.01,72.09-50.06-3.64,10.3-5.28,20.34-3.41,29.14,9.23,34.43,64.61,18.82,84.75,3.31,25.07-17.68,41.6-44.11,55.31-70.78,21.97-43.1,35.79-89.7,64.28-129.14Z"/>
      <path class="cls-1" d="m408.17,1318.57s.03,0,.05,0c0,0-.02,0-.02,0-.01,0-.02,0-.03,0Z"/>
      <path class="cls-1" d="m783.08,1247.45c16.78-21.17,62.89-84.56,63.36-109.45-1.25-12.3-14.09-12.82-22.79-9.36-16.93,5.76-27.8,17.27-39.26,29.5-21.33,23.22-39,49.51-52.24,78.09-10.67,23.63-23.67,53.51-19.03,80.41-3.86,3.35-7.83,6.58-11.97,9.59-14.02,10.45-41.66,24.2-49.42.81,19.13-14.61,34.7-34.24,47.27-54.56,5.03-9.23,11.01-18.72,10.22-29.96-.46-6.89-6.85-12.26-13.16-12.63-11.78-.88-22.23,4.76-31.55,10.88-14.02,9.81-25.24,23.51-30.59,40.11-4.44,13.7-3.21,33.29,3.94,47.94-14.79,9.31-31.32,14.54-48.06,11.34-6.9-2.07-11.46-5.18-14.27-8.97,3.54-2.68,6.95-5.46,10.26-8.15,11.74-10.15,22.54-21.06,32.53-32.95,7.53-9.13,14.78-18.95,19.28-30.23,6.49-14.84,1.81-32.22-17.69-28.75-18.85,4.79-32.61,20.25-44.31,34.62-10.41,13.39-19.39,27.97-20.11,45.76-.51,7.06,1.27,14.44,4.9,20.72-8.3,3.95-17.46,7.23-25.87,3.8-8.02-3.61-9.49-13.52-7.87-21.01,3.78-12.69,14.33-22.1,23.54-31.79,6.14-6.32,13.67-12.79,18.78-20.38,5.05-7.21,3.16-17.13-5.88-20.16-14.26-3.91-28.23.18-40.36,7.1-3.48,2.09-6.83,4.32-10.08,6.66,26.27-32.71,49.25-68.31,67.34-101.74,5.4-10.95,10.78-22.53,11.81-35.03.51-6.07-2.96-11.32-9.14-13.44-7.07-3.32-13.54,1.15-18.89,4.17-6.34,3.93-11.81,8.37-17.04,13.01-52.25,48.77-90.27,120.7-102.65,192.3-13.94,11.55-27.49,19.95-39.1,22.22-2.66.44-5.16.35-6.47-.3-1.42-.7-2.84-2.61-3.6-3.84-2.8-5.18,4.62-10.5,9.03-13.22,1.13-.66,2.32-1.25,3.39-1.68.29-.12.56-.21.81-.3-.35.04-.73.03-1.61-.07.57.07,1.1.07,1.64.06.19-.06.38-.12.52-.15.15-.03.28-.04.16.01-.27.06-.46.11-.66.13,10.83-.17,12.99-16.41,1.28-18.64-6.13-.66-10.83,2.76-15.45,5.91-8.74,6.49-17.5,17.12-14.49,29.24,1.81,6.27,5.88,10.77,11.33,13.94,13.01,6.23,26.21-2.83,36.22-9.26,5.08-3.6,10.11-7.43,15.09-11.43-.54,4.15-1.02,8.3-1.38,12.44,0,0,19.95,6.64,19.95,6.64,3.69-6.1,7.86-12.45,12.04-18.53,14.65-20.71,46.92-64.61,75.31-69.27-3.63,3.65-7.79,7.37-10.85,10.32-11.98,11.96-24.4,23.37-28.18,41.77-3.4,18.06,10.95,34.5,28.92,35.23,9.86-.06,18.77-3.59,26.98-8.52,2.97,3.21,6.56,5.82,10.7,7.51,11.67,5.14,25.07,4.29,36.82,1.31,10.24-2.95,19.73-7.38,28.56-12.85,6.96,10.45,17.7,16.84,32.38,13.68,13.52-3.18,27.66-12.28,41.42-24.13.68,2.21,1.47,4.4,2.44,6.55,7.3,15.89,22.76,25.37,38.03,31.33,6.6,2.48,10.53-6.86,4.47-9.97-12.04-6.22-24.39-14.43-29.12-27.16-1.47-4.23-2.22-8.67-2.4-13.22,21.46-21.31,41.11-46.98,54.82-64.02Zm-210.44-123.18c2.39-1.62,4.93-3,6.9-3.72.94-.4,1.47-1.48,1.86-2.31.44-.8.16-1.17.33-1.02,5.79,13.4-41.45,85.8-51.75,100.44-11.86,17.24-33.83,46.14-57.75,71.37,12.2-44.65,33.19-86.97,60.96-124.01,11.56-14.99,24.1-29.99,39.46-40.75Zm32.4,136.84c6.4-6.54,12.63-13.41,20.96-15.39.31,0,0-.32.23-.33.18.08.67.76.85,1.93,1.36,24-30.81,61.1-54.48,77.77-5.17-19.68,20.46-50.26,32.45-63.98Zm47.83,26.06c5.38-14.85,16.85-29.38,30.4-38.78,4.18-2.68,8.84-5.36,13.49-5.14.16-.05.59.17.86,1.18.9,4.33-.57,9.16-2.18,13.67-3.92,10.28-9.85,19.82-15.95,29.03-7.49,11.18-17.61,23.01-29.35,32.73-1.7-10.73-.86-22.53,2.73-32.7Zm179.04-146.89c.19.4.32.84.4,1.3-.09-.12-.19-.23-.25-.35-.44-.8-.28-1.1-.15-.96Zm-82.16,104.71c18.15-35.78,44.05-67.43,74.38-93.47,2.72-2.54,5.41-5.04,8.23-6.96-.05.45-.1.9-.18,1.36-1.4,6.82-4.77,13.6-7.83,20.03-13.62,26.7-31.47,51.47-47.98,76.58-8.44,12.57-17.68,24.58-27.3,36.22-6.57,7.85-13.32,15.61-20.41,23,2.31-19.73,12.98-40.62,21.09-56.76Z"/>
    </g>
    <path class="cls-1" d="m1391.23,1322.54c-1.25-3.29-4.96-4.93-8.24-3.64-15.71,5.84-54.73,20.44-64.79,1.72-1.11-2.93-1.63-6.09-1.66-9.36,9.02-3.68,17.93-8.1,26.44-12.59,12.39-6.8,24.91-13.63,35.26-23.58,8.21-7.62,11.83-19.11,1.49-27-13.87-10.65-29.34-10.11-43.56-1.47-19.58,11.66-37.59,39.29-37.12,64.13-6.34,2.84-12.68,5.69-18.92,8.74-9.42,4.33-18.52,9.17-27.4,14.38-.92-4.37-2.19-8.78-2.82-13.14-.29-1.81-.51-3.65-.69-5.48,21.92-14.87,44.47-35.09,46.52-55.16.37-6.79.77-13.91-1.82-20.79-5.07-12.08-20.61-11.21-29.92-5.59-28.49,17.38-38.83,53.76-35.2,85.46-12.99,7.43-26.99,13.3-41.53,15.2-4.8.74-10.61,1.2-12.22.13-.6-.41-.4-.45-.61-1.32-.18-1.06-.05-3.06.42-5.14,2.17-9.22,7.56-18.76,12.47-27.24,10.8-18.1,23.66-35.76,36.67-52.34l-.11-.07c.32-.41.63-.81.95-1.22,3.29-4.2,3.04-10.29-.8-14.2-4.17-4.25-11-4.32-15.26-.14,0,0-2.36,2.32-2.36,2.32-12.87,18.39-24.61,36.97-34.75,57.2-1.85,3.86-3.64,7.66-5.27,11.51-3.85,4.62-7.88,9.07-12.15,13.28-7.38,7.01-16.11,13.67-25.39,17.35-4.35,1.75-8.95,2.31-10.74,1.23-2.23-1.15-3.39-4.1-3.91-6.77-1.93-17.09,13.2-37.43,23.22-51.11,6.23-8.08,13.23-16.39,20.23-23.64l-.02-.02c.12-.12.24-.24.36-.36,11.02-11.31-4.84-27.82-16.59-17.21-.5.56-1.02,1.16-1.54,1.77,0,0-.13-.11-.13-.11-.32.45-.64.92-.96,1.37-7.86,9.21-18.16,22.7-26.62,37.39-1.34.79-2.86,1.45-4.64,1.94-6.34,2.17-13.35,4.42-20.28,4.91.51-2.41.98-4.81,1.35-7.18,3.26-21.05-1.6-48.83-28.69-46.87-.77.07-1.44.25-2.06.48-9.61-1.19-19.56,4.19-25.65,11.01-13.29,14.56-20.34,31.79-27.36,49.44-5.83,14.53-9.35,32.42-21.38,42.94-6.68,5.92-12.72-3.01-15.45-9.35-10.41-24.64,3.93-57.37,12.94-81.81,19.99-49.85,46.48-96,68.98-145.09,8.32-21.14-21.59-33.53-30.74-12.9-6.27,15.97-13.7,32.32-20.97,48.66-13.46,30.42-27.37,60.85-38.73,92.25-20.87,6.63-41.37,14.4-61.2,23.6,10.42-27.56,20.39-56.33,29.09-79.83,7.97-21.13,16.24-44.07,27.6-62.87,10.91-19.34-16.47-35.24-27.92-16.46-6.62,11.96-11.13,23.58-15.46,35.22-12.39,34.17-21.89,69.27-32.61,103.64-2.92,8.76-6.89,21.8-11.8,36.29-8.49,4.82-16.82,9.93-24.96,15.4-20.43,14.04-40.13,28.89-54.98,49.42-9.12,12.35-15.03,32.08,2.37,41.18,42.81,20.38,70.56-35.72,85.71-66.64,5.58-11.76,11.2-25.15,16.74-39.21,16.83-8.43,34.24-15.74,51.87-22.08,3.54-1.24,7.11-2.44,10.68-3.6-2.24,6.74-4.36,13.53-6.3,20.38-4.92,18.61-9.49,39.08-5.16,58.53,3.19,13.64,9.92,27.66,23.11,34.72,15.66,8.2,30.93-1.9,38.95-15.07.08.23.14.46.22.69,6.35,16.51,25.43,15.25,38.87,9.12,20.62-9.85,33.32-30.84,39.99-52.63,4.04.54,8.14.53,12.09-.02,1.25-.14,3.82-.46,5.06-.65.7-.11,1.38-.22,2.06-.32-7.64,18.09-10.24,36.16-.4,48.88,18.53,21.01,43.51-5.83,57.18-19.58-.13.69-.27,1.36-.38,2.07-2.36,14.59,6.29,25.05,21.3,22.56,14.44-2.15,26.9-9.78,39.67-16.05,2.78-1.43,5.86-3.1,9.13-4.95.82,4.27,2,8.56,2.78,12.78.3,2.11.42,4.2.41,6.26-26.05,17.6-50.07,38.27-73.32,59.47-6.61,5.77-14.84,10.54-15.25,21,.02,8.11,7.95,12.62,14.62,12.34,8.4-.07,16.39-3.17,23.34-6.13,10.81-4.8,20.67-10.86,29.94-17.9,22.67-17.29,43.97-44.14,41.21-74.55,14.49-8.29,29.75-15.64,46.02-22.4.63,3.52,1.67,6.94,3.21,10.19,9.75,19.59,35.46,19.52,53.37,14.37,11.22-2.98,21.7-7.22,31.76-12.1,2.91-1.42,4.33-4.87,3.16-7.96Zm-582.07,36.39c-5.32.91-13.3.61-16.78-3.54-4.83-12.21,19.38-35.38,28.61-43.61,12.52-10.82,25.94-20.52,39.99-29.27-12.87,34.71-30.5,71.3-51.83,76.42Zm272.43-100.64c1.17,8.26.58,16.93-1.15,25.4-2.16-.28-4.29-.8-6.37-1.62-16.79-6.1-21.01-28.6-8.3-40.75,9.18-1.52,14.65,7.66,15.82,16.96Zm-33,78.05c-7.74,4.92-21.44,9.65-29.36,3.67-2.84-2.44-4.01-7.34-4.01-12.71.13-11.24,3.54-22.91,6.88-33.85.05-.15.1-.31.15-.46,1.91-5.56,3.98-11.2,6.31-16.73,5.51-11.95,13.27-22.96,24.6-28.96-3.29,9.03-1.95,19.24,2.02,27.89,4.13,9.6,12.81,15.84,22.61,18.67-5.28,16.48-14.67,32.75-29.21,42.48Zm211.4-71.38c3.65-5.64,8.02-10.75,13.57-14.04,2.05-1.13,3.63-1.74,5.28-1.74.17.01.16-.15.35-.35.18-.2.6-.38,1.24-.27,2.81.85,3.91,4.16,4.01,7.22,1.8,19.79-19.91,38.49-35.69,50.33.02-14.5,3.56-29.01,11.24-41.15Zm-98.57,160.37c.02-.18.08-.4.12-.59.1.42.13.78.11.99-.14.87-.34.3-.23-.4Zm39.09-25.58c-7.88,6.42-16.56,12.13-25.56,16.48-4.16,1.93-8.2,3.69-12.21,4.59.21-.54.44-1.09.69-1.63,3.02-7.44,8.82-13.12,14.45-18.83,17.39-18.44,35.38-33.68,54.63-46.71-3.28,18.32-17.67,34.25-31.99,46.11Zm145.07-137.15c7.52-4.54,15.72-4.88,23.86-3.75,1.99.3,3.56,1.1,3.79,1.26.12.08.16-.09.21.15-.77,4.58-5.55,8.69-9.08,12.06-7.7,6.86-16.73,12.84-25.89,18.43-6.74,4.28-13.76,8-20.91,11.47,3.61-16.01,16.17-32.68,28.02-39.62Z"/>
  </g>
  <polygon class="cls-1" points="1157.17 810.39 859.47 810.39 859.47 746.69 851.73 746.69 851.73 818.14 1153.15 818.14 1275.98 992.56 1275.98 1023.62 1099.86 1023.62 1061.98 854.88 851.14 854.88 851.14 862.63 1055.78 862.63 1093.66 1031.37 1283.73 1031.37 1283.73 990.11 1157.17 810.39"/>
  <path class="cls-1" d="m597.11,901.21l69.85-69.85-5.48-5.48-69.85,69.85c2.07,1.57,3.91,3.41,5.48,5.48Z"/>
  <path class="cls-1" d="m557.23,895.73l-69.85-69.85-5.48,5.48,69.85,69.85c1.57-2.07,3.41-3.91,5.48-5.48Z"/>
  <path class="cls-1" d="m597.11,935.61c-1.57,2.07-3.41,3.91-5.48,5.48l69.85,69.85,5.48-5.48-69.85-69.85Z"/>
  <path class="cls-1" d="m602.64,914.53c.17,1.27.3,2.56.3,3.87s-.12,2.6-.3,3.87h98.77v-7.75h-98.77Z"/>
  <path class="cls-1" d="m574.43,900.23c-10.02,0-18.17,8.15-18.17,18.18s8.15,18.18,18.17,18.18,18.18-8.15,18.18-18.18-8.15-18.18-18.18-18.18Z"/>
  <path class="cls-1" d="m1297.58,278.21c-110.29-110.29-256.94-171.03-412.91-171.03-25.26,0-50.28,1.62-74.93,4.76,3.11,2.22,5.78,4.78,7.76,6.91,22.04-2.56,44.45-3.92,67.17-3.92,318.23,0,576.2,257.97,576.2,576.2,0,244.54-152.34,453.47-367.29,537.13.94,1.16,3.1,3.96,4.57,6.7,73.86-28.97,141.65-73.13,199.44-130.92,110.29-110.29,171.03-256.94,171.03-412.91s-60.74-302.62-171.03-412.91Z"/>
  <path class="cls-1" d="m495.73,1002.86c.03-.12.06-.24.09-.36l-.36.36h.27Z"/>
  <path class="cls-1" d="m573.92,1045.39c-31.1,0-59.57-11.19-81.64-29.75-.77,2.61-1.6,5.25-2.46,7.91,23.07,18.49,52.31,29.59,84.11,29.59,38.65,0,73.52-16.38,98.11-42.54h-10.85c-22.75,21.55-53.46,34.79-87.27,34.79Z"/>
  <path class="cls-1" d="m573.92,791.43c70.13,0,126.98,56.85,126.98,126.98,0,32.43-12.17,62-32.18,84.45h10.07c18.65-23.12,29.86-52.49,29.86-84.45,0-74.29-60.44-134.73-134.73-134.73-43.9,0-82.96,21.12-107.58,53.72,1.47,1.76,3.12,3.84,4.92,6.3,23.09-31.67,60.46-52.27,102.66-52.27Z"/>
  <path class="cls-1" d="m668.73,1002.86c-2.4,2.69-4.92,5.27-7.54,7.75h10.85c2.35-2.5,4.61-5.08,6.76-7.75h-10.07Z"/>
  <path class="cls-1" d="m557.23,941.09c-2.07-1.57-3.91-3.41-5.48-5.48l-52.92,52.92c-.85,4.56-1.86,9.22-3.02,13.97l61.41-61.41Z"/>
  <path class="cls-1" d="m546.22,922.28c-.17-1.27-.3-2.56-.3-3.87s.12-2.6.3-3.87h-45.99c.42,2.53.79,5.11,1.12,7.75h44.87Z"/>
  <path class="cls-2" d="m920.53,1031.31l20.09,35.03h18.37l-15.81-23.66c-8.3-2.38-15.94-6.28-22.64-11.37Z"/>
  <path class="cls-2" d="m1000.69,1033.63c-3.23,2.18-6.69,4.05-10.28,5.66l23.77,27.04h18.37l-31.86-32.71Z"/>
  <path class="cls-2" d="m1026.76,1000.35c-.95,2.56-2.02,5.05-3.25,7.46l69.35,58.53h18.37l-84.46-65.99Z"/>
  <path class="cls-1" d="m898.5,1002.86h-219.7c-2.15,2.67-4.41,5.25-6.76,7.75h230.3c-1.43-2.5-2.73-5.07-3.84-7.75Z"/>
  <path class="cls-1" d="m1025.84,1002.86c-1.11,2.68-2.42,5.25-3.84,7.75h69.1v-7.75h-65.25Z"/>
  <path class="cls-1" d="m1345.56,691.13c0,100.57-32.4,193.71-87.29,269.56l4.83,6.86c56.7-77.5,90.2-173.04,90.2-276.42,0-244.78-187.68-445.69-426.98-466.77.68,3.29,1.09,6.28,1.27,7.9,234.08,21.72,417.97,219.21,417.97,458.87Z"/>
  <path class="cls-1" d="m442.48,738.94c-.67,2.55-1.36,5.2-2.03,7.75h125.95v-7.75h-123.92Z"/>
  <polygon class="cls-1" points="503.99 432.44 506.4 440.19 566.4 440.19 566.4 432.44 503.99 432.44"/>
  <rect class="cls-1" x="754.71" y="432.44" width="198.27" height="7.75"/>
  <rect class="cls-1" x="586.09" y="432.44" width="150.25" height="7.75"/>
  <rect class="cls-1" x="586.09" y="738.94" width="150.25" height="7.75"/>
  <rect class="cls-1" x="754.71" y="738.94" width="198.27" height="7.75"/>
  <polygon class="cls-1" points="1065.72 432.44 974.51 432.44 974.51 440.19 1062.51 440.19 1107.74 485.42 1107.74 693.71 1062.51 738.94 974.51 738.94 974.51 746.69 1065.72 746.69 1115.48 696.92 1115.48 482.21 1065.72 432.44"/>
  <path class="cls-1" d="m592.65,1047.38l-9.46,2.48c54.44,45.8,119.47,79.36,190.86,96.66,1.32-1.42,3.71-3.95,6.22-6.51-69.95-16.28-133.85-48.48-187.62-92.63Z"/>
  <path class="cls-1" d="m1210.93,1027.5h-11.54c-41.1,38.48-89.24,69.53-142.24,91.01-1.75,3.66-3.7,7.67-5.04,10.43,59.78-22.89,113.69-57.66,158.82-101.44Z"/>
  <path class="cls-1" d="m1057.15,1118.5s-.03.02-.05.02l-5.02,10.42s.02,0,.02,0c1.34-2.76,3.29-6.77,5.04-10.43Z"/>
  <path class="cls-1" d="m848.28,162.89c.31,1.24.62,2.53.93,3.82h.1c-.31-1.29-.62-2.58-.98-3.82h-.05Z"/>
  <path class="cls-1" d="m425.47,789.79c.21.16.41.31.62.46-.21-.21-.41-.36-.62-.52v.05Z"/>
  <path class="cls-1" d="m928.09,241.1c0-42.26-33.73-76.86-75.73-78.21-9.51-37.35-43.03-63.74-82.29-63.74-16.43,0-31.82,4.7-44.84,12.81-21.7-16.74-48.66-26.29-76.97-26.29-20.15,0-39.16,4.75-56.05,13.22-26.19-24.12-64.42-37.92-105.38-37.92-43.65,0-83.37,17-112.97,44.68-15.55-4.24-31.87-6.51-48.45-6.51-98.1,0-178.42,77.95-182.09,175.22-.1,2.32-.16,4.65-.16,7.02,0,25.98,5.48,50.73,15.34,73.09,1.6,3.67,3.36,7.28,5.22,10.85q-.05.05-.05.1c-9.14,11.21-16.89,23.45-23.25,36.26-13.53,27.27-20.71,57.55-20.71,88.33,0,7.18.36,14.26,1.14,21.28-54.08,38.33-89.47,101.35-89.47,172.53,0,50.98,18.13,97.84,48.3,134.36,1.09,1.34,2.17,2.63,3.26,3.87,1.14,1.29,2.27,2.58,3.41,3.82,3.67,4.13,7.59,8.11,11.67,11.88-18.08,28.62-29.03,60.28-32.65,94.22-9.04,84.81,31.49,163.68,98.16,207.81.72-1.89,1.78-4.61,2.92-7.35-63.54-42.75-102.04-118.35-93.38-199.63,3.46-32.29,13.79-62.45,30.79-89.73,2.12,1.86,4.34,3.67,6.56,5.48,1.91,1.55,3.87,3.1,5.89,4.55,2.27,1.7,4.55,3.36,6.87,4.91,2.32,1.6,4.65,3.15,7.03,4.65s4.8,2.94,7.23,4.34c.05.05.1.05.16.1,2.38,1.39,4.8,2.69,7.23,3.98,2.12,1.09,4.24,2.17,6.35,3.2.67.31,1.34.62,2.01.93,2.27,1.08,4.55,2.12,6.87,3.1.16.05.31.16.47.21,2.32.98,4.65,1.91,6.97,2.79.88.36,1.71.67,2.58.98,1.91.72,3.82,1.39,5.73,2.01,2.69.88,5.32,1.76,8.06,2.53,2.48.72,4.96,1.39,7.49,2.01.21.05.41.1.62.16l.93-3.77.93-3.77c-2.27-.57-4.55-1.19-6.82-1.81-5.89-1.65-11.67-3.62-17.36-5.84-2.22-.83-4.39-1.7-6.56-2.63-2.48-1.03-4.96-2.17-7.39-3.36-2.43-1.14-4.86-2.32-7.28-3.62-4.75-2.53-9.45-5.22-14.05-8.11-2.32-1.39-4.55-2.89-6.77-4.44-2.27-1.55-4.44-3.1-6.61-4.75-1.6-1.14-3.1-2.32-4.6-3.51-.98-.77-1.96-1.55-2.89-2.32-2.53-2.07-5.01-4.18-7.39-6.41-.36-.26-.67-.57-.98-.88-2.17-1.96-4.29-3.98-6.35-6.1-1.39-1.39-2.79-2.79-4.08-4.24-2.12-2.12-4.08-4.29-5.89-6.51-30.94-35.69-49.69-82.29-49.69-133.12,0-67.1,32.65-126.71,82.86-163.75,1.14-.93,2.32-1.76,3.51-2.58s2.38-1.65,3.62-2.48c32.44-21.9,71.54-34.71,113.54-34.71,44.06,0,85.96,13.79,121.19,39.98l2.32-3.15,2.27-3.1c-36.57-27.12-80.07-41.48-125.78-41.48-42.15,0-81.46,12.4-114.47,33.78-.47-5.37-.72-10.85-.72-16.32,0-42.46,14.26-83.89,40.29-117.26.93,1.7,1.96,3.41,3.05,5.11,3.15,4.96,6.51,9.76,10.07,14.41,1.81,2.32,3.67,4.65,5.63,6.92l5.84-4.96c-4.29-5.06-8.32-10.33-11.93-15.86-2.22-3.2-4.29-6.51-6.15-9.87-.1-.05-.16-.1-.16-.21-.93-1.6-1.86-3.2-2.74-4.86-1.6-3.1-3.2-6.2-4.6-9.4-10.18-22.16-15.86-46.8-15.86-72.68,0-9.14.72-18.18,2.07-26.96q0-.05.05-.1c13.02-83.42,85.34-147.43,172.38-147.43,14.36,0,28.46,1.76,42.05,5.11,1.39.36,2.84.72,4.24,1.14h.1c1.39.41,2.79.77,4.18,1.24,43.34,13.07,80.58,42.77,102.9,83.84l3.41-1.86,3.41-1.86c-22.57-41.48-59.77-71.91-103.21-86.16,27.79-24.64,64.36-39.62,104.35-39.62s73.46,12.35,98.2,34.09c1.03.83,2.01,1.76,3,2.69.31.26.62.57.88.83l2.69-2.79,2.32,3.2c16.27-8.52,34.76-13.33,54.34-13.33,25.72,0,50.26,8.37,70.25,23.19h.05c1.09.83,2.12,1.6,3.15,2.48,1.03.83,2.07,1.65,3.1,2.53,10.74,9.14,19.89,20.25,26.91,33.01l3.36-1.86,3.41-1.86c-7.08-12.91-16.27-24.23-26.97-33.68,11.36-6.56,24.54-10.33,38.54-10.33,35.02,0,65.09,23.14,74.28,56.15.36,1.24.72,2.53.98,3.82.31,1.24.57,2.53.77,3.82,1.19-.05,2.43-.1,3.67-.1h.21c4.8,0,9.45.52,14,1.45.83.16,1.65.36,2.48.57.98.26,1.91.52,2.89.77.93.26,1.86.57,2.79.88,1.29.41,2.58.88,3.82,1.39.83.31,1.7.67,2.53,1.08,1.08.47,2.17.93,3.2,1.5.16.05.26.16.41.21,1.6.83,3.2,1.76,4.7,2.69,1.14.72,2.22,1.45,3.36,2.17,0,.05.05.05.05.05.1.05.21.16.31.21.1.05.21.16.31.26.88.57,1.71,1.24,2.53,1.91,1.03.78,2.07,1.6,3.05,2.53,1.03.88,2.01,1.81,2.94,2.74.88.83,1.76,1.76,2.63,2.69,0,.05.05.16.16.21.93.98,1.81,2.01,2.58,3.05.88,1.03,1.65,2.07,2.43,3.15s1.55,2.22,2.22,3.36c.77,1.14,1.45,2.27,2.07,3.46.67,1.14,1.29,2.32,1.86,3.56l.05.05c.57,1.19,1.08,2.43,1.6,3.62.52,1.24,1.03,2.53,1.45,3.82.31.78.57,1.5.77,2.27.36,1.14.67,2.22.93,3.36.31,1.08.57,2.17.77,3.31.26,1.14.46,2.32.62,3.46.16.88.26,1.81.36,2.69,0,.21.05.41.05.62.15,1.24.26,2.53.31,3.82.05,1.19.1,2.38.1,3.62,0,19.08-7.6,36.35-19.89,49.05h6.48v4.32c13.08-14,21.16-32.74,21.16-53.37Zm-78.88-74.39c-.31-1.29-.62-2.58-.93-3.82h.05c.36,1.24.67,2.53.98,3.82h-.1Z"/>
  <path class="cls-1" d="m425.47,789.79c.21.16.41.31.62.46-.21-.21-.41-.36-.62-.52v.05Z"/>
  <path class="cls-1" d="m799.14,290.15c-.81-.83-1.63-1.67-2.36-2.56-.16-.16-.31-.31-.46-.52l-.05-.05c-1.03-1.19-2.01-2.43-3-3.72-.05-.1-.1-.21-.21-.31-1.03-1.39-2.01-2.84-2.94-4.34-.93-1.5-1.86-3.05-2.69-4.65-.41-.72-.83-1.5-1.14-2.27h.05c3.25-.62,6.41-1.45,9.56-2.48,9.97-3.15,19.11-8.11,27.33-14.62l-2.43-3.05-2.43-3c-7.44,5.94-15.81,10.43-24.79,13.28-3.41,1.09-6.82,1.91-10.33,2.53h-.05c-1.29.21-2.58.41-3.87.52-.83.1-1.6.21-2.38.26h-.1c-.46.05-1.03.1-1.5.16-5.17.36-10.33.15-15.45-.52h-.15c-.1-.05-.26-.05-.31-.05s-.05-.05-.05-.05c-.52-.05-.98-.1-1.5-.21-1.29-.21-2.58-.41-3.93-.72-3.62-.72-7.18-1.76-10.64-3.05-5.99-2.22-11.67-5.17-16.94-8.78l-2.22,3.2-2.17,3.15c5.79,4.03,12.09,7.28,18.65,9.71,3.1,1.14,6.25,2.12,9.45,2.84-20.97,35.8-59.97,58.47-101.81,58.47-10.12,0-19.99-1.29-29.39-3.72,20.87-27.69,33.27-62.09,33.27-99.34,0-22.32-4.34-43.96-12.97-64.36l-3.56,1.55-3.56,1.5c8.21,19.42,12.35,40.03,12.35,61.32,0,36.52-12.5,70.2-33.42,96.96-.88,1.08-1.71,2.17-2.58,3.2-.88,1.09-1.81,2.17-2.69,3.2-28.93,33.16-71.49,54.19-118.86,54.19h-.62c-2.94-4.7-6.15-9.3-9.5-13.74-31.41-41.33-78.62-70.05-132.55-77.07-1.5-.21-3.05-.36-4.6-.52-1.45-.15-2.89-.31-4.34-.41-5.58-.47-11.16-.72-16.84-.72-28.57,0-56.15,5.94-81.98,17.62l1.6,3.56,1.6,3.51c24.79-11.26,51.3-16.94,78.78-16.94,6.97,0,13.9.36,20.66,1.14,1.55.16,3.05.31,4.55.57,1.65.16,3.25.41,4.86.67,50.37,7.95,94.22,35.69,123.36,74.95.83,1.09,1.6,2.17,2.38,3.31.83,1.14,1.65,2.32,2.43,3.51.1.1.16.16.21.26.93,1.34,1.81,2.69,2.63,4.03.88,1.34,1.7,2.58,2.43,3.93v.05c17.46,28.77,27.48,62.5,27.48,98.51,0,52.12-21.02,99.49-55.07,134.05-3.51,3.56-7.18,7.08-11.05,10.33-.1.16-.21.26-.36.31-1.14,1.03-2.38,2.07-3.56,3-.83.72-1.71,1.45-2.58,2.07-1.14.88-2.22,1.81-3.36,2.69h-.05c-1.14.88-2.27,1.7-3.41,2.53-4.49,3.25-9.14,6.3-13.9,9.14-4.75,2.84-9.66,5.48-14.67,7.9-.77.41-1.55.77-2.38,1.14-.52.26-1.03.52-1.55.72-.26.1-.57.26-.83.36-.52.26-1.03.52-1.6.72-.57.26-1.14.52-1.7.72-.52.21-.98.46-1.5.62-.15.1-.36.21-.52.26l2.94,7.13c2.17-.88,4.34-1.81,6.46-2.79,2.48-1.14,4.96-2.32,7.44-3.56,2.43-1.24,4.86-2.53,7.23-3.87,2.38-1.34,4.75-2.74,7.08-4.18,2.32-1.45,4.65-2.94,6.92-4.44,4.55-3.05,8.94-6.25,13.17-9.71,2.48,12.71,3.72,25.67,3.72,38.69,0,35.33-9.04,68.6-24.95,97.58-31.51-24.74-70.1-41.22-112.77-45.77-32.18-3.41-63.95.05-94.38,10.38l1.24,3.67,1.24,3.67c29.39-9.97,60.03-13.33,91.07-10.02,41.58,4.44,79.14,20.56,109.67,44.84,1.08.83,2.12,1.7,3.15,2.53.98.83,1.96,1.65,2.94,2.48,51.66,44.17,81.46,112.2,73.71,184.78-10.96,102.88-93.85,181.03-193.22,189.83-1.57,2.88-3.4,5.78-4.95,8.11,105.54-6.59,194.33-88.55,205.87-197.11,8.06-75.68-23.25-146.65-77.48-192.42,16.94-30.37,26.6-65.35,26.6-102.54,0-14.93-1.6-29.86-4.7-44.32-1.03.93-2.12,1.86-3.2,2.74,1.09-.98,2.17-1.91,3.2-2.84,5.89-5.17,11.47-10.64,16.63-16.48,31.82-35.23,51.19-81.88,51.19-132.91,0-35.8-9.56-69.43-26.24-98.51,49.28-1.19,93.29-24.02,122.79-59.35,11,3.2,22.62,4.91,34.61,4.91,45.56,0,87.92-25.16,109.87-64.67,3.93.57,7.9.88,11.93.88,2.74,0,5.48-.16,8.21-.41,4.85,10.91,12.15,20.47,21.14,28.07-.63-5.91-1.19-10.79-1.19-10.79h.91Zm-373.67,499.65v-.05c.21.16.41.31.62.52-.21-.16-.41-.31-.62-.46Z"/>
  <polygon class="cls-1" points="1183.9 1045.29 1169.87 1045.29 1177.56 1050.14 1183.9 1045.29"/>
  <polygon class="cls-1" points="584.06 1045.29 595.79 1055.62 1168.91 1055.62 1153.51 1045.29 584.06 1045.29"/>
  <polygon class="cls-1" points="1141.66 1027.5 1126.99 1027.5 1153.51 1045.29 1169.87 1045.29 1141.66 1027.5"/>
  <polygon class="cls-1" points="1168.91 1055.62 1169.71 1056.16 1170.4 1055.62 1168.91 1055.62"/>
  <polygon class="cls-1" points="1177.56 1050.14 1169.87 1045.29 1153.51 1045.29 1168.91 1055.62 1170.4 1055.62 1177.56 1050.14"/>
</svg>