<?xml version="1.0" encoding="UTF-8"?>
<svg id="Layer_1" data-name="Layer 1" xmlns="http://www.w3.org/2000/svg" viewBox="0 0 1500 1500">
  <defs>
    <style>
      .cls-1 {
        fill: #fff;
        stroke-width: 0px;
      }
    </style>
  </defs>
  <path class="cls-1" d="m782.83,619.54c-22.01,0-42.35-8.41-57.26-23.68-13.94-14.28-21.36-32.94-20.89-52.53.97-40.75,36.55-73.89,79.3-73.89s77.85,33.17,78.17,73.95c.15,19.59-7.56,38.23-21.71,52.49-15.14,15.26-35.6,23.67-57.61,23.67Zm1.15-142.36c-38.58,0-70.68,29.75-71.55,66.33h0c-.42,17.5,6.22,34.17,18.69,46.94,13.44,13.77,31.81,21.35,51.72,21.35s38.43-7.59,52.11-21.38c12.68-12.78,19.6-29.47,19.46-46.97-.28-36.54-31.87-66.27-70.42-66.27Z"/>
  <path class="cls-1" d="m784.06,465.74c-4.23,0-8.32-1.67-11.21-4.59-2.72-2.75-4.19-6.35-4.15-10.13h0c.09-8.05,7.05-14.59,15.53-14.59,4.22,0,8.29,1.66,11.18,4.57,2.72,2.73,4.2,6.32,4.18,10.09-.05,8.09-7.01,14.66-15.53,14.66Zm-7.61-14.64h0c-.02,1.7.66,3.33,1.91,4.6,1.44,1.46,3.52,2.3,5.7,2.3,4.27,0,7.77-3.12,7.79-6.96.01-1.69-.68-3.32-1.93-4.58-1.44-1.45-3.51-2.29-5.68-2.29-4.25,0-7.75,3.11-7.79,6.93Z"/>
  <path class="cls-1" d="m714.59,492.52c-3.96,0-7.9-1.42-10.86-4.26h0c-2.89-2.78-4.46-6.49-4.41-10.43.05-4.05,1.78-7.83,4.86-10.65,6.1-5.58,15.84-5.55,21.72.06,2.9,2.77,4.48,6.48,4.45,10.42-.04,4.05-1.75,7.83-4.82,10.66-3.05,2.8-7.01,4.21-10.94,4.21Zm-5.49-9.85c3,2.89,8.01,2.86,11.18-.06,1.48-1.37,2.31-3.15,2.32-5.03.02-1.79-.71-3.47-2.05-4.75-2.99-2.85-7.99-2.82-11.14.06-1.49,1.36-2.32,3.15-2.34,5.03-.02,1.78.7,3.47,2.03,4.75h0Z"/>
  <path class="cls-1" d="m683.99,558.54c-4.33,0-8.32-1.66-11.24-4.68-2.77-2.86-4.23-6.61-4.1-10.57.26-8.24,7.44-14.95,16-14.95,4.32,0,8.3,1.65,11.22,4.65,2.77,2.85,4.23,6.58,4.13,10.52-.22,8.28-7.4,15.02-16,15.02Zm.65-22.44c-4.42,0-8.13,3.34-8.26,7.44-.06,1.84.63,3.59,1.92,4.93,1.45,1.5,3.47,2.32,5.68,2.32,4.44,0,8.15-3.35,8.26-7.48.05-1.84-.64-3.58-1.94-4.91-1.45-1.49-3.46-2.31-5.67-2.31Z"/>
  <path class="cls-1" d="m711.53,626.41c-4.06,0-8.1-1.5-11.13-4.5-2.92-2.9-4.5-6.74-4.45-10.84.05-4.2,1.8-8.13,4.93-11.07,6.26-5.88,16.25-5.86,22.27.06,2.94,2.89,4.54,6.73,4.5,10.83-.04,4.19-1.78,8.13-4.89,11.08h0c-3.13,2.96-7.19,4.44-11.22,4.44Zm.53-23.08c-2.1,0-4.23.77-5.88,2.32-1.58,1.48-2.46,3.45-2.49,5.52-.03,1.97.74,3.83,2.16,5.23,3.1,3.07,8.29,3.04,11.57-.06h0c1.57-1.49,2.45-3.45,2.47-5.52.02-1.98-.75-3.83-2.18-5.23-1.53-1.51-3.58-2.26-5.65-2.26Z"/>
  <path class="cls-1" d="m783.28,655.12c-4.34,0-8.38-1.67-11.38-4.71-2.91-2.94-4.49-6.82-4.44-10.92.09-8.54,7.27-15.49,16.01-15.49,4.32,0,8.35,1.66,11.36,4.68,2.9,2.92,4.49,6.78,4.47,10.87-.05,8.59-7.23,15.57-16.01,15.57Zm.19-23.37c-4.51,0-8.22,3.51-8.26,7.82-.02,2.02.76,3.93,2.2,5.39,1.54,1.55,3.62,2.41,5.87,2.41,4.53,0,8.24-3.53,8.26-7.86h0c.01-2.01-.78-3.91-2.22-5.36-1.54-1.54-3.62-2.4-5.86-2.4Z"/>
  <path class="cls-1" d="m854.01,626.41c-4.04,0-8.09-1.49-11.19-4.46-3.05-2.93-4.73-6.84-4.74-11,0-4.13,1.64-8.01,4.65-10.91,6.11-5.89,16.1-5.91,22.27-.02h0c3.06,2.93,4.76,6.83,4.78,10.99.02,4.13-1.62,8.01-4.61,10.92-3.07,2.99-7.11,4.48-11.16,4.48Zm-.16-23.08c-2.08,0-4.16.76-5.74,2.28-1.48,1.43-2.29,3.32-2.29,5.33,0,2.04.84,3.96,2.36,5.42,3.22,3.1,8.41,3.1,11.57.02,1.47-1.43,2.28-3.33,2.27-5.33-.01-2.04-.86-3.97-2.38-5.42h0c-1.61-1.53-3.71-2.3-5.8-2.3Z"/>
  <path class="cls-1" d="m882.64,558.54c-8.64,0-15.74-6.76-15.82-15.08-.04-3.92,1.48-7.65,4.28-10.48,2.95-2.99,6.95-4.63,11.25-4.63,8.6,0,15.69,6.73,15.82,15.01.06,3.94-1.45,7.68-4.25,10.53-2.96,3-6.96,4.66-11.28,4.66Zm-.29-22.44c-2.22,0-4.26.83-5.75,2.33-1.33,1.35-2.06,3.11-2.04,4.95.04,4.09,3.66,7.42,8.07,7.42,2.22,0,4.27-.83,5.76-2.35,1.33-1.35,2.06-3.12,2.03-4.97-.06-4.07-3.69-7.38-8.07-7.38Z"/>
  <path class="cls-1" d="m853.1,492.52c-3.94,0-7.89-1.41-10.91-4.23-3.01-2.81-4.67-6.57-4.68-10.58,0-3.98,1.63-7.71,4.59-10.5h0c5.96-5.6,15.7-5.61,21.72-.02,3.02,2.8,4.69,6.56,4.71,10.57.02,3.98-1.6,7.71-4.55,10.51-2.99,2.83-6.94,4.24-10.89,4.24Zm-5.69-19.66c-1.39,1.31-2.15,3.03-2.15,4.84,0,1.85.79,3.6,2.22,4.93,3.1,2.9,8.12,2.91,11.18.02,1.38-1.31,2.14-3.03,2.13-4.85,0-1.85-.8-3.6-2.24-4.93-3.1-2.89-8.1-2.88-11.14-.02h0Z"/>
  <path class="cls-1" d="m640.15,622.55c28.73,0,51.41,22.62,50.65,50.82-.77,28.53-25.19,51.9-54.54,51.9s-52-23.38-50.61-51.9c1.37-28.2,25.76-50.82,54.49-50.82m0-7.75c-32.76,0-60.67,26.1-62.23,58.19-.77,15.75,4.75,30.66,15.54,41.99,11.08,11.63,26.28,18.04,42.81,18.04,33.46,0,61.4-26.67,62.28-59.44.42-15.49-5.27-30.11-16.02-41.15-11.07-11.37-26.12-17.63-42.38-17.63h0Z"/>
  <path class="cls-1" d="m925.39,622.55c28.73,0,52.76,22.62,53.67,50.82.93,28.53-22.1,51.9-51.45,51.9s-53.39-23.38-53.7-51.9c-.31-28.2,22.74-50.82,51.47-50.82m0-7.75c-16.24,0-31.37,6.25-42.59,17.59-10.89,11.01-16.8,25.59-16.63,41.06.36,32.85,27.92,59.57,61.45,59.57,16.51,0,31.79-6.4,43.03-18.01,10.93-11.3,16.67-26.18,16.16-41.9-1.04-32.15-28.6-58.31-61.42-58.31h0Z"/>
  <rect class="cls-1" x="779.52" y="794.36" width="7.75" height="154.79"/>
  <rect class="cls-1" x="647.78" y="865.36" width="149.93" height="7.75" transform="translate(-181.19 1548.07) rotate(-87.16)"/>
  <rect class="cls-1" x="591.81" y="862.34" width="144.68" height="7.75" transform="translate(-273.19 1425.54) rotate(-83.35)"/>
  <rect class="cls-1" x="530.51" y="860.11" width="143.1" height="7.75" transform="translate(-377.4 1250.77) rotate(-76.68)"/>
  <rect class="cls-1" x="840.18" y="794.27" width="7.75" height="149.93" transform="translate(-42.34 43.22) rotate(-2.86)"/>
  <rect class="cls-1" x="898.77" y="793.88" width="7.75" height="144.68" transform="translate(-94.07 110.13) rotate(-6.64)"/>
  <rect class="cls-1" x="960.86" y="792.44" width="7.75" height="143.1" transform="translate(-172.97 245.26) rotate(-13.31)"/>
  <path class="cls-1" d="m828.96,329.56h-.05c-.74-11.36-34.91-12.27-45.47-12.27s-44.75.91-45.48,12.28h-.05s-8.08,86.49-8.08,86.49l6.05-2.68c.44-.2,44.08-19.1,95.35.09l5.79,2.17-8.05-86.08Zm-90.23,74.46l6.89-73.74-3.86-.36h0l3.86.36c4.25-2.05,18-5.25,37.81-5.25s33.56,3.2,37.81,5.25l3.86-.36h0l-3.86.36,6.91,73.9c-41.02-13.43-75.86-4.75-89.43-.16Z"/>
  <g>
    <path class="cls-1" d="m1023.42,179.19l-10.16,3.07c-.92-4.7-2.69-7.66-5.33-8.86-1.28-.59-2.49-.73-3.62-.41s-1.89.9-2.29,1.76c-.39.87-.47,1.82-.25,2.85.32,1.38,1.71,4.68,4.15,9.88,2.3,4.83,3.66,7.83,4.08,9.01,1.06,2.91,1.59,5.46,1.58,7.67-.01,2.21-.51,4.39-1.5,6.56-1.93,4.22-4.98,7.03-9.15,8.43-4.17,1.41-8.6,1.05-13.28-1.1-3.65-1.67-6.43-4.04-8.32-7.07-1.9-3.03-2.93-6.91-3.1-11.64l10.49-1.19c.39,5.67,2.19,9.25,5.41,10.71,1.68.77,3.31.93,4.9.47,1.59-.46,2.68-1.32,3.27-2.59.53-1.17.64-2.53.3-4.09-.33-1.56-1.41-4.21-3.25-7.95-3.51-7.13-5.5-12.3-6-15.53-.49-3.23-.18-6.07.95-8.54,1.63-3.56,4.39-5.99,8.27-7.29,3.88-1.31,7.81-1.04,11.8.78,2.56,1.18,4.73,2.89,6.5,5.15,1.78,2.24,3.29,5.56,4.56,9.94Z"/>
    <path class="cls-1" d="m1113.9,225.98l24.39,19.49-6.62,8.28-8.04-6.42-28.64,35.84-8.52-6.8,28.64-35.85-7.83-6.26,6.61-8.28Z"/>
    <path class="cls-1" d="m1211.29,320.02l6.49,8.62-29.19,21.96c-2.52,1.89-4.13,3.45-4.84,4.67-.72,1.23-1,2.58-.86,4.06.14,1.48.75,2.94,1.82,4.37,1.15,1.51,2.47,2.55,3.99,3.12,1.52.58,2.97.67,4.36.28s3.59-1.72,6.62-4l28.11-21.15,6.49,8.62-26.91,20.24c-4.55,3.42-7.88,5.53-10.03,6.35s-4.58,1.11-7.3.9c-2.72-.21-5.18-.96-7.39-2.25-2.2-1.3-4.24-3.18-6.12-5.69-2.46-3.27-3.86-6.68-4.18-10.24-.32-3.55.26-6.7,1.74-9.45,1.48-2.74,4.9-6.14,10.28-10.18l26.91-20.25Z"/>
    <path class="cls-1" d="m1288.42,447.11l4.64,11.86c2.98,7.65,4.25,13.7,3.81,18.16-.44,4.45-2.33,8.72-5.65,12.79-3.33,4.07-7.84,7.22-13.54,9.45-4.06,1.58-8.04,2.37-11.97,2.35-3.92-.03-7.47-.78-10.63-2.28-3.17-1.49-5.72-3.46-7.66-5.88-1.94-2.43-4.24-7.05-6.9-13.86l-4.71-12.05,52.62-20.55Zm-5.78,13.72l-33.19,12.96,1.82,4.65c1.79,4.58,3.61,7.69,5.47,9.34,1.86,1.65,4.28,2.65,7.27,3s6.31-.2,9.93-1.61c5.59-2.18,9.31-5.43,11.17-9.76,1.67-3.89,1.29-8.95-1.14-15.18l-1.33-3.39Z"/>
    <path class="cls-1" d="m1328.73,592.48l1.33,10.59-56.04,7.06-1.33-10.59,56.04-7.06Z"/>
    <path class="cls-1" d="m1330.27,739.32c-1.05,7.92-4.83,14.35-11.32,19.29-6.49,4.94-13.86,6.87-22.11,5.77-8.17-1.08-14.71-4.82-19.62-11.19-4.91-6.37-6.84-13.57-5.77-21.6,1.11-8.41,4.94-15,11.49-19.79,6.55-4.8,13.82-6.65,21.82-5.59,5.35.71,10.1,2.65,14.25,5.84,4.15,3.18,7.23,7.21,9.26,12.1,2.02,4.88,2.69,9.94,2,15.17Zm-10.42-1.5c.69-5.19-.53-9.78-3.67-13.79-3.13-4.01-7.48-6.38-13.04-7.12-6.19-.82-11.39.75-15.58,4.72-3.27,3.09-5.21,6.86-5.8,11.33-.67,5.06.58,9.61,3.76,13.65s7.45,6.42,12.81,7.12c5.33.71,10.08-.48,14.24-3.58,4.17-3.09,6.59-7.2,7.27-12.33Z"/>
    <path class="cls-1" d="m1275.57,896.24l-3.31-10.09c4.68-1.03,7.59-2.88,8.73-5.54.55-1.3.67-2.5.32-3.62-.34-1.12-.94-1.87-1.81-2.24-.87-.38-1.82-.43-2.85-.18-1.38.36-4.64,1.82-9.78,4.38-4.78,2.42-7.74,3.85-8.91,4.3-2.89,1.13-5.43,1.72-7.64,1.76-2.2.05-4.4-.4-6.59-1.34-4.26-1.82-7.14-4.81-8.65-8.95-1.51-4.13-1.25-8.57.78-13.3,1.59-3.7,3.88-6.53,6.87-8.5,2.99-1.96,6.85-3.09,11.56-3.38l1.44,10.46c-5.66.53-9.19,2.42-10.58,5.67-.73,1.7-.85,3.33-.36,4.92.49,1.57,1.38,2.65,2.68,3.2,1.18.51,2.54.57,4.09.21,1.55-.37,4.18-1.51,7.87-3.45,7.04-3.67,12.16-5.8,15.38-6.37,3.21-.57,6.06-.32,8.56.75,3.6,1.54,6.1,4.24,7.49,8.09,1.4,3.85,1.24,7.79-.49,11.81-1.11,2.59-2.77,4.81-4.97,6.63-2.21,1.83-5.48,3.43-9.84,4.8Z"/>
  </g>
  <g>
    <g>
      <path class="cls-1" d="m496.52,1161.12c5.46-7.87,11.25-15.65,17.46-22.81.83-.96.76-2.4-.17-3.28-.95-.9-2.45-.85-3.35.1-40.84,42.34-61.84,98.38-90.15,148.66-19.99,34.38-46.8,72.33-89.45,75.54-6.48.29-18.23,1.3-19.96-6.1-2.67-20.62,24.77-58.55,36.66-75.98,5.48-7.69,11.29-15.37,17.01-22.71,3.27-3.93,3.41-9.49-.87-12.77-3.65-2.75-8.84-2.03-11.6,1.63-.07.1-.15.2-.23.29l-.02-.02c-6.71,7.43-12.81,14.97-18.86,22.75-1.61,2.14-3.35,4.46-5.18,6.94-1.02,1.19-2.03,2.39-3.05,3.58-18.53,21.55-37.9,42.93-59.6,60.97-12.97,10.21-30.74,24.52-47.46,17.73-3.89-1.78-7.53-5.74-8.95-9.63-.51-1.56-1.01-3.65-1.38-5.24-3.25-15.92,4.38-30.58,13.63-43.38,12.18-16.88,26.82-31.84,41.31-47.23,15-15.88,30.12-32.12,42.95-50.14,10.23-14.46,18.02-29.89,12.71-48.36-3.97-16.4-17.9-28.85-33.11-34.82-15.39-6.2-34.09-4.18-47.8,4.93-19.62,12.71-30.87,34.69-38.32,55.61-4.86,14.17-8.35,29.24-6.09,44.45,2.16,16.01,14.72,29.34,31.15,30.9,3.06.28,3.78-4.24.69-4.86-22.97-4.64-27.46-26.93-22.23-47.08,7.57-28.28,26.33-70.07,59.21-72.59,22.63-1.56,48.17,20.83,38.39,44.31-5.1,11.47-14.8,22.33-23.41,32.05-19.2,21.28-40.86,40-60.14,61.65-19.62,21.61-39.71,50.78-30.39,82.44,3.87,17.15,20.09,30.25,37.57,29.98,26.4.7,53.06-28.01,72.09-50.06-3.64,10.3-5.28,20.34-3.41,29.14,9.23,34.43,64.61,18.82,84.75,3.31,25.07-17.68,41.6-44.11,55.31-70.78,21.97-43.1,35.79-89.7,64.28-129.14Z"/>
      <path class="cls-1" d="m430.19,1347.16s.03,0,.05,0c0,0-.02,0-.02,0-.01,0-.02,0-.03,0Z"/>
      <path class="cls-1" d="m805.11,1276.04c16.78-21.17,62.89-84.56,63.36-109.45-1.25-12.3-14.09-12.82-22.79-9.36-16.93,5.76-27.8,17.27-39.26,29.5-21.33,23.22-39,49.51-52.24,78.09-10.67,23.63-23.67,53.51-19.03,80.41-3.86,3.35-7.83,6.58-11.97,9.59-14.02,10.45-41.66,24.2-49.42.81,19.13-14.61,34.7-34.24,47.27-54.56,5.03-9.23,11.01-18.72,10.22-29.96-.46-6.89-6.85-12.26-13.16-12.63-11.78-.88-22.23,4.76-31.55,10.88-14.02,9.81-25.24,23.51-30.59,40.11-4.44,13.7-3.21,33.29,3.94,47.94-14.79,9.31-31.32,14.54-48.06,11.34-6.9-2.07-11.46-5.18-14.27-8.97,3.54-2.68,6.95-5.46,10.26-8.15,11.74-10.15,22.54-21.06,32.53-32.95,7.53-9.13,14.78-18.95,19.28-30.23,6.49-14.84,1.81-32.22-17.69-28.75-18.85,4.79-32.61,20.25-44.31,34.62-10.41,13.39-19.39,27.97-20.11,45.76-.51,7.06,1.27,14.44,4.9,20.72-8.3,3.95-17.46,7.23-25.87,3.8-8.02-3.61-9.49-13.52-7.87-21.01,3.78-12.69,14.33-22.1,23.54-31.79,6.14-6.32,13.67-12.79,18.78-20.38,5.05-7.21,3.16-17.13-5.88-20.16-14.26-3.91-28.23.18-40.36,7.1-3.48,2.09-6.83,4.32-10.08,6.66,26.27-32.71,49.25-68.31,67.34-101.74,5.4-10.95,10.78-22.53,11.81-35.03.51-6.07-2.96-11.32-9.14-13.44-7.07-3.32-13.54,1.15-18.89,4.17-6.34,3.93-11.81,8.37-17.04,13.01-52.25,48.77-90.27,120.7-102.65,192.3-13.94,11.55-27.49,19.95-39.1,22.22-2.66.44-5.16.35-6.47-.3-1.42-.7-2.84-2.61-3.6-3.84-2.8-5.18,4.62-10.5,9.03-13.22,1.13-.66,2.32-1.25,3.39-1.68.29-.12.56-.21.81-.3-.35.04-.73.03-1.61-.07.57.07,1.1.07,1.64.06.19-.06.38-.12.52-.15.15-.03.28-.04.16.01-.27.06-.46.11-.66.13,10.83-.17,12.99-16.41,1.28-18.64-6.13-.66-10.83,2.76-15.45,5.91-8.74,6.49-17.5,17.12-14.49,29.24,1.81,6.27,5.88,10.77,11.33,13.94,13.01,6.23,26.21-2.83,36.22-9.26,5.08-3.6,10.11-7.43,15.09-11.43-.54,4.15-1.02,8.3-1.38,12.44,0,0,19.95,6.64,19.95,6.64,3.69-6.1,7.86-12.45,12.04-18.53,14.65-20.71,46.92-64.61,75.31-69.27-3.63,3.65-7.79,7.37-10.85,10.32-11.98,11.96-24.4,23.37-28.18,41.77-3.4,18.06,10.95,34.5,28.92,35.23,9.86-.06,18.77-3.59,26.98-8.52,2.97,3.21,6.56,5.82,10.7,7.51,11.67,5.14,25.07,4.29,36.82,1.31,10.24-2.95,19.73-7.38,28.56-12.85,6.96,10.45,17.7,16.84,32.38,13.68,13.52-3.18,27.66-12.28,41.42-24.13.68,2.21,1.47,4.4,2.44,6.55,7.3,15.89,22.76,25.37,38.03,31.33,6.6,2.48,10.53-6.86,4.47-9.97-12.04-6.22-24.39-14.43-29.12-27.16-1.47-4.23-2.22-8.67-2.4-13.22,21.46-21.31,41.11-46.98,54.82-64.02Zm-210.44-123.18c2.39-1.62,4.93-3,6.9-3.72.94-.4,1.47-1.48,1.86-2.31.44-.8.16-1.17.33-1.02,5.79,13.4-41.45,85.8-51.75,100.44-11.86,17.24-33.83,46.14-57.75,71.37,12.2-44.65,33.19-86.97,60.96-124.01,11.56-14.99,24.1-29.99,39.46-40.75Zm32.4,136.84c6.4-6.54,12.63-13.41,20.96-15.39.31,0,0-.32.23-.33.18.08.67.76.85,1.93,1.36,24-30.81,61.1-54.48,77.77-5.17-19.68,20.46-50.26,32.45-63.98Zm47.83,26.06c5.38-14.85,16.85-29.38,30.4-38.78,4.18-2.68,8.84-5.36,13.49-5.14.16-.05.59.17.86,1.18.9,4.33-.57,9.16-2.18,13.67-3.92,10.28-9.85,19.82-15.95,29.03-7.49,11.18-17.61,23.01-29.35,32.73-1.7-10.73-.86-22.53,2.73-32.7Zm179.04-146.89c.19.4.32.84.4,1.3-.09-.12-.19-.23-.25-.35-.44-.8-.28-1.1-.15-.96Zm-82.16,104.71c18.15-35.78,44.05-67.43,74.38-93.47,2.72-2.54,5.41-5.04,8.23-6.96-.05.45-.1.9-.18,1.36-1.4,6.82-4.77,13.6-7.83,20.03-13.62,26.7-31.47,51.47-47.98,76.58-8.44,12.57-17.68,24.58-27.3,36.22-6.57,7.85-13.32,15.61-20.41,23,2.31-19.73,12.98-40.62,21.09-56.76Z"/>
    </g>
    <path class="cls-1" d="m1413.25,1351.14c-1.25-3.29-4.96-4.93-8.24-3.64-15.71,5.84-54.73,20.44-64.79,1.72-1.11-2.93-1.63-6.09-1.66-9.36,9.02-3.68,17.93-8.1,26.44-12.59,12.39-6.8,24.91-13.63,35.26-23.58,8.21-7.62,11.83-19.11,1.49-27-13.87-10.65-29.34-10.11-43.56-1.47-19.58,11.66-37.59,39.29-37.12,64.13-6.34,2.84-12.68,5.69-18.92,8.74-9.42,4.33-18.52,9.17-27.4,14.38-.92-4.37-2.19-8.78-2.82-13.14-.29-1.81-.51-3.65-.69-5.48,21.92-14.87,44.47-35.09,46.52-55.16.37-6.79.77-13.91-1.82-20.79-5.07-12.08-20.61-11.21-29.92-5.59-28.49,17.38-38.83,53.76-35.2,85.46-12.99,7.43-26.99,13.3-41.53,15.2-4.8.74-10.61,1.2-12.22.13-.6-.41-.4-.45-.61-1.32-.18-1.06-.05-3.06.42-5.14,2.17-9.22,7.56-18.76,12.47-27.24,10.8-18.1,23.66-35.76,36.67-52.34l-.11-.07c.32-.41.63-.81.95-1.22,3.29-4.2,3.04-10.29-.8-14.2-4.17-4.25-11-4.32-15.26-.14,0,0-2.36,2.32-2.36,2.32-12.87,18.39-24.61,36.97-34.75,57.2-1.85,3.86-3.64,7.66-5.27,11.51-3.85,4.62-7.88,9.07-12.15,13.28-7.38,7.01-16.11,13.67-25.39,17.35-4.35,1.75-8.95,2.31-10.74,1.23-2.23-1.15-3.39-4.1-3.91-6.77-1.93-17.09,13.2-37.43,23.22-51.11,6.23-8.08,13.23-16.39,20.23-23.64l-.02-.02c.12-.12.24-.24.36-.36,11.02-11.31-4.84-27.82-16.59-17.21-.5.56-1.02,1.16-1.54,1.77,0,0-.13-.11-.13-.11-.32.45-.64.92-.96,1.37-7.86,9.21-18.16,22.7-26.62,37.39-1.34.79-2.86,1.45-4.64,1.94-6.34,2.17-13.35,4.42-20.28,4.91.51-2.41.98-4.81,1.35-7.18,3.26-21.05-1.6-48.83-28.69-46.87-.77.07-1.44.25-2.06.48-9.61-1.19-19.56,4.19-25.65,11.01-13.29,14.56-20.34,31.79-27.36,49.44-5.83,14.53-9.35,32.42-21.38,42.94-6.68,5.92-12.72-3.01-15.45-9.35-10.41-24.64,3.93-57.37,12.94-81.81,19.99-49.85,46.48-96,68.98-145.09,8.32-21.14-21.59-33.53-30.74-12.9-6.27,15.97-13.7,32.32-20.97,48.66-13.46,30.42-27.37,60.85-38.73,92.25-20.87,6.63-41.37,14.4-61.2,23.6,10.42-27.56,20.39-56.33,29.09-79.83,7.97-21.13,16.24-44.07,27.6-62.87,10.91-19.34-16.47-35.24-27.92-16.46-6.62,11.96-11.13,23.58-15.46,35.22-12.39,34.17-21.89,69.27-32.61,103.64-2.92,8.76-6.89,21.8-11.8,36.29-8.49,4.82-16.82,9.93-24.96,15.4-20.43,14.04-40.13,28.89-54.98,49.42-9.12,12.35-15.03,32.08,2.37,41.18,42.81,20.38,70.56-35.72,85.71-66.64,5.58-11.76,11.2-25.15,16.74-39.21,16.83-8.43,34.24-15.74,51.87-22.08,3.54-1.24,7.11-2.44,10.68-3.6-2.24,6.74-4.36,13.53-6.3,20.38-4.92,18.61-9.49,39.08-5.16,58.53,3.19,13.64,9.92,27.66,23.11,34.72,15.66,8.2,30.93-1.9,38.95-15.07.08.23.14.46.22.69,6.35,16.51,25.43,15.25,38.87,9.12,20.62-9.85,33.32-30.84,39.99-52.63,4.04.54,8.14.53,12.09-.02,1.25-.14,3.82-.46,5.06-.65.7-.11,1.38-.22,2.06-.32-7.64,18.09-10.24,36.16-.4,48.88,18.53,21.01,43.51-5.83,57.18-19.58-.13.69-.27,1.36-.38,2.07-2.36,14.59,6.29,25.05,21.3,22.56,14.44-2.15,26.9-9.78,39.67-16.05,2.78-1.43,5.86-3.1,9.13-4.95.82,4.27,2,8.56,2.78,12.78.3,2.11.42,4.2.41,6.26-26.05,17.6-50.07,38.27-73.32,59.47-6.61,5.77-14.84,10.54-15.25,21,.02,8.11,7.95,12.62,14.62,12.34,8.4-.07,16.39-3.17,23.34-6.13,10.81-4.8,20.67-10.86,29.94-17.9,22.67-17.29,43.97-44.14,41.21-74.55,14.49-8.29,29.75-15.64,46.02-22.4.63,3.52,1.67,6.94,3.21,10.19,9.75,19.59,35.46,19.52,53.37,14.37,11.22-2.98,21.7-7.22,31.76-12.1,2.91-1.42,4.33-4.87,3.16-7.96Zm-582.07,36.39c-5.32.91-13.3.61-16.78-3.54-4.83-12.21,19.38-35.38,28.61-43.61,12.52-10.82,25.94-20.52,39.99-29.27-12.87,34.71-30.5,71.3-51.83,76.42Zm272.43-100.64c1.17,8.26.58,16.93-1.15,25.4-2.16-.28-4.29-.8-6.37-1.62-16.79-6.1-21.01-28.6-8.3-40.75,9.18-1.52,14.65,7.66,15.82,16.96Zm-33,78.05c-7.74,4.92-21.44,9.65-29.36,3.67-2.84-2.44-4.01-7.34-4.01-12.71.13-11.24,3.54-22.91,6.88-33.85.05-.15.1-.31.15-.46,1.91-5.56,3.98-11.2,6.31-16.73,5.51-11.95,13.27-22.96,24.6-28.96-3.29,9.03-1.95,19.24,2.02,27.89,4.13,9.6,12.81,15.84,22.61,18.67-5.28,16.48-14.67,32.75-29.21,42.48Zm211.4-71.38c3.65-5.64,8.02-10.75,13.57-14.04,2.05-1.13,3.63-1.74,5.28-1.74.17.01.16-.15.35-.35.18-.2.6-.38,1.24-.27,2.81.85,3.91,4.16,4.01,7.22,1.8,19.79-19.91,38.49-35.69,50.33.02-14.5,3.56-29.01,11.24-41.15Zm-98.57,160.37c.02-.18.08-.4.12-.59.1.42.13.78.11.99-.14.87-.34.3-.23-.4Zm39.09-25.58c-7.88,6.42-16.56,12.13-25.56,16.48-4.16,1.93-8.2,3.69-12.21,4.59.21-.54.44-1.09.69-1.63,3.02-7.44,8.82-13.12,14.45-18.83,17.39-18.44,35.38-33.68,54.63-46.71-3.28,18.32-17.67,34.25-31.99,46.11Zm145.07-137.15c7.52-4.54,15.72-4.88,23.86-3.75,1.99.3,3.56,1.1,3.79,1.26.12.08.16-.09.21.15-.77,4.58-5.55,8.69-9.08,12.06-7.7,6.86-16.73,12.84-25.89,18.43-6.74,4.28-13.76,8-20.91,11.47,3.61-16.01,16.17-32.68,28.02-39.62Z"/>
  </g>
  <path class="cls-1" d="m988.37,703.53h-13.62c-1.73,2.74-3.75,5.32-5.99,7.75h17.95l52.61,23.54,3.16-7.07-54.12-24.21Z"/>
  <g>
    <path class="cls-1" d="m784.54,406.34c79.67,0,145.98,61.53,147.82,137.17.67,27.49-6.91,54.06-21.65,77.11,3.29-.87,6.66-1.46,10.12-1.73,13.2-22.93,19.93-48.84,19.28-75.58-1.94-79.8-71.73-144.72-155.57-144.72s-154.56,63.54-157.84,144.66c-1.08,26.76,5.24,52.69,18.09,75.64,3.43.27,6.78.87,10.04,1.73-14.35-23.04-21.49-49.59-20.38-77.06,3.06-75.67,70.39-137.23,150.09-137.23Z"/>
    <path class="cls-1" d="m871.23,661.71c-25.56,18-56.33,27.73-89.03,27.73s-63.27-9.72-88.53-27.7c.64,3.27.95,6.62.97,10.02,25.46,16.53,55.56,25.42,87.56,25.42s62.2-8.88,87.91-25.39c.06-3.43.43-6.8,1.13-10.09Z"/>
  </g>
  <g>
    <path class="cls-1" d="m165.52,903.05c20.87-25.62,48.4-46.13,80.84-58.89l-2.84-7.18c-33.63,13.22-62.25,34.51-83.94,61.11-40.14-34.92-65.5-86.32-65.5-143.55,0-61.63,29.44-116.54,75.06-151.41,11.47,15.6,25.67,29.39,42.2,40.55l4.29-6.41c-15.76-10.64-29.29-23.81-40.24-38.69-1.55-2.07-3-4.18-4.39-6.35-17.46-26.29-27.12-57.49-27.12-89.99,0-54.7,27.12-103.21,68.6-132.76,2.48-1.76,5.01-3.41,7.54-5.01,25.11-15.86,54.86-25.05,86.68-25.05,74.95,0,139.94,50.73,158.02,123.36l7.54-1.86c-18.96-76.09-87.04-129.24-165.56-129.24-31.66,0-61.32,8.63-86.73,23.76,1.39-107.86,88.18-195.52,195.73-198.41,1.81-.05,3.62-.05,5.42-.05.88,0,1.81,0,2.69.05,14.83.15,29.55,2.01,43.81,5.37l1.76-7.54c-14.05-3.31-28.51-5.22-43.08-5.53,22.11-63.54,82.6-109.2,153.57-109.2,65.6,0,123.36,38.69,148.82,97.01,1.09,2.38,2.07,4.8,3,7.23,2.53,6.61,4.65,13.38,6.3,20.4l7.54-1.81c-1.6-6.82-3.62-13.43-6.04-19.84,4.03-.57,8.11-.83,12.29-.83,54.14,0,98.25,44.06,98.25,98.25,0,27.07-11.36,53.26-31.2,71.75-3.68,3.45-7.64,6.5-11.73,9.3,5.57.27,10.68.67,11.37,1.21,1.93-1.56,3.86-3.13,5.68-4.83,21.33-19.99,33.63-48.2,33.63-77.43,0-58.48-47.58-106-106-106-5.17,0-10.28.36-15.24,1.14-26.34-62.04-87.3-103.31-156.67-103.31-75.26,0-139.27,49.07-161.74,116.9-113.8,1.6-205.95,94.69-205.95,208.9v2.12c-45.82,30.63-76.04,82.81-76.04,141.95,0,34.2,10.18,66.95,28.62,94.53-47.63,36.21-78.41,93.45-78.41,157.76,0,59.72,26.55,113.33,68.44,149.65-26.35,34.76-41.33,77.9-41.33,123.92,0,60.45,26.29,114.81,67.99,152.42.63-2.19,1.5-5.02,2.59-8.11-38.63-36.08-62.83-87.4-62.83-144.3,0-44.11,14.31-85.49,39.52-118.91,1.55-2.07,3.15-4.13,4.8-6.15Z"/>
    <path class="cls-1" d="m740.06,338.05c-14.45-1.74-28.29-6.63-40.52-14.33,20.35-19.99,35.85-45.2,44.06-73.82l-7.44-2.12c-8.01,27.79-23.19,52.22-43.13,71.54-1.86,1.81-3.77,3.56-5.68,5.32-16.58,14.52-36.11,25.72-57.29,32.65-.16-37.55-10.38-74.33-29.6-106.36l-6.66,3.98c18.65,31.1,28.51,66.84,28.51,103.26v1.45c0,2.69-.1,5.37-.21,8.06-3.51,74.23-47.37,138.08-110.13,169.95-21.13-25.52-49.44-44.01-81.98-53.26-10.8-3.05-21.9-5.01-33.01-5.84l-.57,7.7c10.59.83,21.18,2.69,31.46,5.63,30.43,8.58,56.93,25.72,76.97,49.23,1.7,2.07,3.41,4.13,5.01,6.25,4.65,6.1,8.94,12.55,12.71,19.37,20.51,36.78,25.52,79.4,14,119.89-2.89,10.28-6.82,20.04-11.52,29.24-16.99-21.08-38.64-38.28-63.43-49.9-3.67-1.7-7.44-3.36-11.31-4.8-19.94-7.75-41.64-11.98-64.31-11.98-78.62,0-147.12,50.42-170.47,125.42l7.39,2.27c22.32-71.75,87.87-119.95,163.08-119.95,24.9,0,48.56,5.37,69.89,14.98,3.72,1.65,7.39,3.46,11,5.42,21.13,11.42,39.52,27.07,54.08,45.92,1.76,2.22,3.41,4.49,5.01,6.77,19.42,27.69,30.79,61.37,30.79,97.68,0,94.12-76.61,170.73-170.78,170.73-4.55,0-9.2-.16-13.79-.52l-.62,7.7c4.8.41,9.66.57,14.41.57,45.56,0,87.2-17.15,118.76-45.35,7.7,21.28,11.78,43.91,11.78,67.31,0,29.54-6.56,57.56-18.22,82.75,2.44.87,4.84,1.82,7.2,2.89,12.01-26.09,18.77-55.08,18.77-85.64,0-25.41-4.6-50.11-13.33-73.04,33.06-32.44,53.57-77.54,53.57-127.39,0-39.26-12.71-75.57-34.3-105.07,5.79-10.54,10.43-21.85,13.84-33.89,12.04-42.51,6.82-87.2-14.72-125.78-3.77-6.71-7.9-13.12-12.45-19.11,65.14-33.73,110.39-100.73,113.08-178.37,23.71-7.33,45.46-19.78,63.74-36.26,13.87,9.09,29.75,14.78,46.35,16.64v-7.78Z"/>
  </g>
  <g>
    <polygon class="cls-1" points="742.45 364.23 689.38 364.23 677.71 397.67 642.09 431.63 639.91 488.52 647.66 488.82 649.72 435.07 684.41 401.98 694.89 371.97 741.73 371.97 742.45 364.23"/>
    <polygon class="cls-1" points="925.54 431.67 890.36 397.7 879.11 364.23 824.42 364.23 825.15 371.97 873.54 371.97 883.62 401.95 917.88 435.04 919.21 487.88 926.96 487.69 925.54 431.67"/>
  </g>
  <polygon class="cls-1" points="1072 972.3 514.05 974.45 513.57 974.78 518.12 998.45 1088.01 996.75 1072 972.3"/>
  <polygon class="cls-1" points="999.96 794.36 980.45 794.36 993.87 800.04 1042.96 924.45 783.4 945.27 530.46 925.4 525.27 932.76 783.1 953.02 783.4 953.04 1054 931.34 999.96 794.36"/>
  <polygon class="cls-1" points="582.43 794.36 562.86 794.36 559.09 803.62 561.46 818.36 568.91 800.05 582.43 794.36"/>
  <polygon class="cls-1" points="1045.41 727.58 531.18 727.58 535.09 735.33 1037.9 735.33 1039.65 790.49 557.49 790.49 559.25 798.24 1047.65 798.24 1045.41 727.58"/>
  <path class="cls-1" d="m879.48,703.53h-194.7c-1.9,2.77-4.04,5.35-6.38,7.75h207.35c-2.31-2.4-4.41-4.98-6.27-7.75Z"/>
  <path class="cls-1" d="m578.42,703.53l-49.26,22.04,4.06,6.67,46.86-20.96h15.3c-2.2-2.43-4.18-5.01-5.87-7.75h-11.09Z"/>
  <path class="cls-1" d="m845.36,199.54l2.24,8.07c228.06,27.5,405.38,222.18,405.38,457.53,0,254.13-206.75,460.89-460.89,460.89-101.24,0-194.94-32.84-271.07-88.39l-1.08,9.05c76.72,54.82,170.66,87.09,272.14,87.09,258.82,0,468.64-209.82,468.64-468.64,0-240.81-181.64-439.16-415.37-465.6Z"/>
  <polygon class="cls-1" points="521.02 1034.61 520.53 1039.7 588.77 1080 995.77 1080 1074.16 1033.69 521.02 1034.61"/>
  <path class="cls-1" d="m1205.01,252.23c-110.29-110.29-256.94-171.03-412.91-171.03-30.8,0-61.23,2.41-91.09,7.06l6.52,6.89c27.61-4.06,55.84-6.19,84.57-6.19,318.23,0,576.2,257.97,576.2,576.2,0,218.56-121.73,408.6-301.05,506.27-2.03,4.09-4.06,8.17-6.09,12.2,52.38-27.26,100.89-62.6,143.85-105.56,110.29-110.29,171.03-256.93,171.03-412.91s-60.74-302.62-171.03-412.91Z"/>
  <polygon class="cls-1" points="1080.03 1030.63 998.6 929.69 980.04 931.36 1067.41 1039.66 1080.03 1030.63"/>
  <polygon class="cls-1" points="516.98 990.92 519.44 1011.96 586.27 933.24 567.24 931.71 516.98 990.92"/>
  <polygon class="cls-1" points="1009.32 828.62 1012.37 836.37 1224.84 836.37 1226.98 828.62 1009.32 828.62"/>
</svg>